<svg version="1.1" fill="none" stroke="none" stroke-linecap="square" stroke-miterlimit="10" xmlns:xlink="http://www.w3.org/1999/xlink" xmlns="http://www.w3.org/2000/svg" viewBox="93.9 746.2 1726.67 808.8">
    <clipPath id="g2ce745fec58_0_0.0">
        <path d="m0 0l1920.0 0l0 1920.0l-1920.0 0l0 -1920.0z" clip-rule="nonzero"/>
    </clipPath>
    <g clip-path="url(#g2ce745fec58_0_0.0)">
        <path fill="#000000" fill-opacity="0.0" d="m542.1286 799.7174l0 0c0 -24.215515 19.630554 -43.84601 43.84601 -43.84601l749.0325 0c11.628662 0 22.781006 4.619446 31.003784 12.842163c8.222656 8.222717 12.842163 19.375122 12.842163 31.003845l0 701.75684c0 24.215454 -19.630493 43.845947 -43.845947 43.845947l-749.0325 0c-24.215454 0 -43.84601 -19.630493 -43.84601 -43.845947z" fill-rule="evenodd"/>
        <path stroke="#999999" stroke-width="8.0" stroke-linejoin="round" stroke-linecap="butt" stroke-dasharray="32.0,24.0" d="m542.1286 799.7174l0 0c0 -24.215515 19.630554 -43.84601 43.84601 -43.84601l749.0325 0c11.628662 0 22.781006 4.619446 31.003784 12.842163c8.222656 8.222717 12.842163 19.375122 12.842163 31.003845l0 701.75684c0 24.215454 -19.630493 43.845947 -43.845947 43.845947l-749.0325 0c-24.215454 0 -43.84601 -19.630493 -43.84601 -43.845947z" fill-rule="evenodd"/>
        <path fill="#666666" d="m769.40533 822.5134l0 -33.390625l4.421875 0l0 16.5625l16.578125 -16.5625l5.984375 0l-14.0 13.53125l14.625 19.859375l-5.828125 0l-11.90625 -16.90625l-5.453125 5.328125l0 11.578125l-4.421875 0zm46.63495 0l0 -3.546875q-2.828125 4.09375 -7.6875 4.09375q-2.140625 0 -4.0 -0.8125q-1.84375 -0.828125 -2.75 -2.0625q-0.90625 -1.25 -1.265625 -3.046875q-0.25 -1.203125 -0.25 -3.828125l0 -14.984375l4.09375 0l0 13.40625q0 3.21875 0.25 4.328125q0.390625 1.625 1.640625 2.546875q1.265625 0.921875 3.109375 0.921875q1.84375 0 3.453125 -0.9375q1.625 -0.953125 2.296875 -2.578125q0.671875 -1.640625 0.671875 -4.734375l0 -12.953125l4.09375 0l0 24.1875l-3.65625 0zm13.869873 0l-3.8125 0l0 -33.390625l4.109375 0l0 11.90625q2.59375 -3.25 6.625 -3.25q2.234375 0 4.21875 0.90625q2.0 0.890625 3.28125 2.515625q1.296875 1.625 2.015625 3.9375q0.734375 2.296875 0.734375 4.90625q0 6.234375 -3.078125 9.625q-3.0625 3.390625 -7.375 3.390625q-4.28125 0 -6.71875 -3.578125l0 3.03125zm-0.046875 -12.28125q0 4.359375 1.1875 6.296875q1.9375 3.15625 5.234375 3.15625q2.6875 0 4.640625 -2.328125q1.96875 -2.34375 1.96875 -6.96875q0 -4.734375 -1.890625 -6.984375q-1.875 -2.265625 -4.53125 -2.265625q-2.6875 0 -4.65625 2.34375q-1.953125 2.328125 -1.953125 6.75zm38.776062 4.484375l4.234375 0.53125q-1.0 3.71875 -3.71875 5.765625q-2.703125 2.046875 -6.921875 2.046875q-5.3125 0 -8.421875 -3.265625q-3.109375 -3.265625 -3.109375 -9.171875q0 -6.109375 3.140625 -9.46875q3.15625 -3.375 8.171875 -3.375q4.84375 0 7.921875 3.296875q3.078125 3.296875 3.078125 9.296875q0 0.359375 -0.03125 1.09375l-18.03125 0q0.21875 3.984375 2.25 6.109375q2.03125 2.109375 5.0625 2.109375q2.25 0 3.84375 -1.171875q1.59375 -1.1875 2.53125 -3.796875zm-13.46875 -6.625l13.515625 0q-0.28125 -3.046875 -1.546875 -4.578125q-1.96875 -2.375 -5.09375 -2.375q-2.8125 0 -4.75 1.890625q-1.921875 1.890625 -2.125 5.0625zm22.807373 14.421875l0 -24.1875l3.6875 0l0 3.65625q1.421875 -2.5625 2.609375 -3.375q1.203125 -0.828125 2.625 -0.828125q2.078125 0 4.21875 1.3125l-1.40625 3.8125q-1.5 -0.890625 -3.015625 -0.890625q-1.34375 0 -2.421875 0.8125q-1.0625 0.796875 -1.515625 2.234375q-0.6875 2.1875 -0.6875 4.78125l0 12.671875l-4.09375 0zm15.583801 0l0 -24.1875l3.6875 0l0 3.4375q2.671875 -3.984375 7.703125 -3.984375q2.1875 0 4.015625 0.78125q1.84375 0.78125 2.75 2.0625q0.90625 1.28125 1.28125 3.03125q0.21875 1.140625 0.21875 3.984375l0 14.875l-4.09375 0l0 -14.71875q0 -2.5 -0.484375 -3.734375q-0.484375 -1.25 -1.703125 -1.984375q-1.21875 -0.75 -2.859375 -0.75q-2.609375 0 -4.515625 1.671875q-1.90625 1.65625 -1.90625 6.296875l0 13.21875l-4.09375 0zm42.510437 -7.796875l4.234375 0.53125q-1.0 3.71875 -3.71875 5.765625q-2.703125 2.046875 -6.921875 2.046875q-5.3125 0 -8.421875 -3.265625q-3.109375 -3.265625 -3.109375 -9.171875q0 -6.109375 3.140625 -9.46875q3.15625 -3.375 8.171875 -3.375q4.84375 0 7.921875 3.296875q3.078125 3.296875 3.078125 9.296875q0 0.359375 -0.03125 1.09375l-18.03125 0q0.21875 3.984375 2.25 6.109375q2.03125 2.109375 5.0625 2.109375q2.25 0 3.84375 -1.171875q1.59375 -1.1875 2.53125 -3.796875zm-13.46875 -6.625l13.515625 0q-0.28125 -3.046875 -1.546875 -4.578125q-1.96875 -2.375 -5.09375 -2.375q-2.8125 0 -4.75 1.890625q-1.921875 1.890625 -2.125 5.0625zm31.807373 10.75l0.59375 3.625q-1.734375 0.359375 -3.109375 0.359375q-2.21875 0 -3.453125 -0.703125q-1.234375 -0.703125 -1.734375 -1.84375q-0.5 -1.15625 -0.5 -4.84375l0 -13.921875l-3.015625 0l0 -3.1875l3.015625 0l0 -6.0l4.078125 -2.453125l0 8.453125l4.125 0l0 3.1875l-4.125 0l0 14.140625q0 1.75 0.21875 2.265625q0.21875 0.5 0.703125 0.796875q0.484375 0.28125 1.40625 0.28125q0.671875 0 1.796875 -0.15625zm20.57196 -4.125l4.234375 0.53125q-1.0 3.71875 -3.71875 5.765625q-2.703125 2.046875 -6.921875 2.046875q-5.3125 0 -8.421875 -3.265625q-3.109375 -3.265625 -3.109375 -9.171875q0 -6.109375 3.140625 -9.46875q3.15625 -3.375 8.171875 -3.375q4.84375 0 7.921875 3.296875q3.078125 3.296875 3.078125 9.296875q0 0.359375 -0.03125 1.09375l-18.03125 0q0.21875 3.984375 2.25 6.109375q2.03125 2.109375 5.0625 2.109375q2.25 0 3.84375 -1.171875q1.59375 -1.1875 2.53125 -3.796875zm-13.46875 -6.625l13.515625 0q-0.28125 -3.046875 -1.546875 -4.578125q-1.96875 -2.375 -5.09375 -2.375q-2.8125 0 -4.75 1.890625q-1.921875 1.890625 -2.125 5.0625zm21.213623 7.203125l4.046875 -0.640625q0.34375 2.4375 1.90625 3.734375q1.5625 1.296875 4.359375 1.296875q2.828125 0 4.1875 -1.140625q1.375 -1.15625 1.375 -2.703125q0 -1.390625 -1.203125 -2.1875q-0.84375 -0.546875 -4.1875 -1.390625q-4.515625 -1.140625 -6.265625 -1.96875q-1.734375 -0.828125 -2.640625 -2.296875q-0.890625 -1.484375 -0.890625 -3.25q0 -1.625 0.734375 -3.0q0.734375 -1.375 2.015625 -2.296875q0.953125 -0.703125 2.609375 -1.1875q1.65625 -0.484375 3.546875 -0.484375q2.84375 0 4.984375 0.828125q2.15625 0.8125 3.1875 2.21875q1.03125 1.390625 1.40625 3.734375l-4.0 0.546875q-0.28125 -1.859375 -1.59375 -2.90625q-1.296875 -1.0625 -3.6875 -1.0625q-2.828125 0 -4.046875 0.9375q-1.203125 0.9375 -1.203125 2.1875q0 0.796875 0.5 1.4375q0.5 0.65625 1.578125 1.09375q0.609375 0.234375 3.625 1.046875q4.34375 1.15625 6.0625 1.90625q1.71875 0.734375 2.703125 2.15625q0.984375 1.40625 0.984375 3.5q0 2.046875 -1.203125 3.859375q-1.1875 1.8125 -3.453125 2.8125q-2.25 0.984375 -5.09375 0.984375q-4.71875 0 -7.1875 -1.953125q-2.46875 -1.96875 -3.15625 -5.8125zm53.712646 -1.640625l4.03125 0.515625q-0.65625 4.171875 -3.375 6.53125q-2.71875 2.359375 -6.6875 2.359375q-4.96875 0 -7.984436 -3.25q-3.015625 -3.25 -3.015625 -9.296875q0 -3.921875 1.296875 -6.859375q1.296875 -2.9375 3.953186 -4.40625q2.65625 -1.46875 5.765625 -1.46875q3.953125 0 6.453125 2.0q2.5 1.984375 3.21875 5.640625l-4.0 0.625q-0.5625 -2.4375 -2.015625 -3.671875q-1.4375 -1.234375 -3.484375 -1.234375q-3.109375 0 -5.046875 2.234375q-1.937561 2.21875 -1.937561 7.015625q0 4.875 1.859436 7.09375q1.875 2.203125 4.890625 2.203125q2.40625 0 4.03125 -1.46875q1.625 -1.484375 2.046875 -4.5625zm7.453125 8.859375l0 -33.390625l4.09375 0l0 33.390625l-4.09375 0zm26.318604 0l0 -3.546875q-2.828125 4.09375 -7.6875 4.09375q-2.140625 0 -4.0 -0.8125q-1.84375 -0.828125 -2.75 -2.0625q-0.90625 -1.25 -1.265625 -3.046875q-0.25 -1.203125 -0.25 -3.828125l0 -14.984375l4.09375 0l0 13.40625q0 3.21875 0.25 4.328125q0.390625 1.625 1.640625 2.546875q1.265625 0.921875 3.109375 0.921875q1.84375 0 3.453125 -0.9375q1.625 -0.953125 2.296875 -2.578125q0.671875 -1.640625 0.671875 -4.734375l0 -12.953125l4.09375 0l0 24.1875l-3.65625 0zm8.447998 -7.21875l4.046875 -0.640625q0.34375 2.4375 1.90625 3.734375q1.5625 1.296875 4.359375 1.296875q2.828125 0 4.1875 -1.140625q1.375 -1.15625 1.375 -2.703125q0 -1.390625 -1.203125 -2.1875q-0.84375 -0.546875 -4.1875 -1.390625q-4.515625 -1.140625 -6.265625 -1.96875q-1.734375 -0.828125 -2.640625 -2.296875q-0.890625 -1.484375 -0.890625 -3.25q0 -1.625 0.734375 -3.0q0.734375 -1.375 2.015625 -2.296875q0.953125 -0.703125 2.609375 -1.1875q1.65625 -0.484375 3.546875 -0.484375q2.84375 0 4.984375 0.828125q2.15625 0.8125 3.1875 2.21875q1.03125 1.390625 1.40625 3.734375l-4.0 0.546875q-0.28125 -1.859375 -1.59375 -2.90625q-1.296875 -1.0625 -3.6875 -1.0625q-2.828125 0 -4.046875 0.9375q-1.203125 0.9375 -1.203125 2.1875q0 0.796875 0.5 1.4375q0.5 0.65625 1.578125 1.09375q0.609375 0.234375 3.625 1.046875q4.34375 1.15625 6.0625 1.90625q1.71875 0.734375 2.703125 2.15625q0.984375 1.40625 0.984375 3.5q0 2.046875 -1.203125 3.859375q-1.1875 1.8125 -3.453125 2.8125q-2.25 0.984375 -5.09375 0.984375q-4.71875 0 -7.1875 -1.953125q-2.46875 -1.96875 -3.15625 -5.8125zm33.921875 3.546875l0.59375 3.625q-1.734375 0.359375 -3.109375 0.359375q-2.21875 0 -3.453125 -0.703125q-1.234375 -0.703125 -1.734375 -1.84375q-0.5 -1.15625 -0.5 -4.84375l0 -13.921875l-3.015625 0l0 -3.1875l3.015625 0l0 -6.0l4.078125 -2.453125l0 8.453125l4.125 0l0 3.1875l-4.125 0l0 14.140625q0 1.75 0.21875 2.265625q0.21875 0.5 0.703125 0.796875q0.484375 0.28125 1.40625 0.28125q0.671875 0 1.796875 -0.15625zm20.572021 -4.125l4.234375 0.53125q-1.0 3.71875 -3.71875 5.765625q-2.703125 2.046875 -6.921875 2.046875q-5.3125 0 -8.421875 -3.265625q-3.109375 -3.265625 -3.109375 -9.171875q0 -6.109375 3.140625 -9.46875q3.15625 -3.375 8.171875 -3.375q4.84375 0 7.921875 3.296875q3.078125 3.296875 3.078125 9.296875q0 0.359375 -0.03125 1.09375l-18.03125 0q0.21875 3.984375 2.25 6.109375q2.03125 2.109375 5.0625 2.109375q2.25 0 3.84375 -1.171875q1.59375 -1.1875 2.53125 -3.796875zm-13.46875 -6.625l13.515625 0q-0.28125 -3.046875 -1.546875 -4.578125q-1.96875 -2.375 -5.09375 -2.375q-2.8125 0 -4.75 1.890625q-1.921875 1.890625 -2.125 5.0625zm22.807373 14.421875l0 -24.1875l3.6875 0l0 3.65625q1.421875 -2.5625 2.609375 -3.375q1.203125 -0.828125 2.625 -0.828125q2.078125 0 4.21875 1.3125l-1.40625 3.8125q-1.5 -0.890625 -3.015625 -0.890625q-1.34375 0 -2.421875 0.8125q-1.0625 0.796875 -1.515625 2.234375q-0.6875 2.1875 -0.6875 4.78125l0 12.671875l-4.09375 0z" fill-rule="nonzero"/>
        <path fill="#eeeeee" d="m310.77692 1202.3898l-103.59056 0l0 -103.590576l103.59056 0z" fill-rule="evenodd"/>
        <path stroke="#595959" stroke-width="8.0" stroke-linejoin="round" stroke-linecap="butt" d="m310.77692 1202.3898l-103.59056 0l0 -103.590576l103.59056 0z" fill-rule="evenodd"/>
        <path fill="#eeeeee" d="m103.5958 1098.7992l103.59055 51.795288l-103.59055 51.795288z" fill-rule="evenodd"/>
        <path stroke="#595959" stroke-width="8.0" stroke-linejoin="round" stroke-linecap="butt" d="m103.5958 1098.7992l103.59055 51.795288l-103.59055 51.795288z" fill-rule="evenodd"/>
        <path fill="#eeeeee" d="m310.74152 1402.4618l-103.590546 0l0 -103.590576l103.590546 0z" fill-rule="evenodd"/>
        <path stroke="#595959" stroke-width="8.0" stroke-linejoin="round" stroke-linecap="butt" d="m310.74152 1402.4618l-103.590546 0l0 -103.590576l103.590546 0z" fill-rule="evenodd"/>
        <path fill="#eeeeee" d="m103.560425 1298.8712l103.590546 51.795288l-103.590546 51.795288z" fill-rule="evenodd"/>
        <path stroke="#595959" stroke-width="8.0" stroke-linejoin="round" stroke-linecap="butt" d="m103.560425 1298.8712l103.590546 51.795288l-103.590546 51.795288z" fill-rule="evenodd"/>
        <path fill="#eeeeee" d="m196.70866 823.7441l0 0c0 -37.48578 33.187332 -67.87402 74.12599 -67.87402c40.93863 0 74.12598 30.388245 74.12598 67.87402c0 37.48578 -33.187347 67.87402 -74.12598 67.87402c-40.93866 0 -74.12599 -30.388245 -74.12599 -67.87402z" fill-rule="evenodd"/>
        <path fill="#bebebe" d="m239.36542 803.44476c0 -3.9047852 3.457016 -7.0702515 7.721466 -7.0702515c4.264435 0 7.721451 3.1654663 7.721451 7.0702515c0 3.9047241 -3.457016 7.0701904 -7.721451 7.0701904c-4.26445 0 -7.721466 -3.1654663 -7.721466 -7.0701904m47.495544 0c0 -3.9047852 3.4570007 -7.0702515 7.721466 -7.0702515c4.264435 0 7.7214355 3.1654663 7.7214355 7.0702515c0 3.9047241 -3.4570007 7.0701904 -7.7214355 7.0701904c-4.2644653 0 -7.721466 -3.1654663 -7.721466 -7.0701904" fill-rule="evenodd"/>
        <path fill="#000000" fill-opacity="0.0" d="m230.65788 853.3444q40.176773 25.26538 80.25969 0" fill-rule="evenodd"/>
        <path fill="#000000" fill-opacity="0.0" d="m196.70866 823.7441l0 0c0 -37.48578 33.187332 -67.87402 74.12599 -67.87402c40.93863 0 74.12598 30.388245 74.12598 67.87402c0 37.48578 -33.187347 67.87402 -74.12598 67.87402c-40.93866 0 -74.12599 -30.388245 -74.12599 -67.87402z" fill-rule="evenodd"/>
        <path stroke="#595959" stroke-width="8.0" stroke-linejoin="round" stroke-linecap="butt" d="m239.36542 803.44476c0 -3.9047852 3.457016 -7.0702515 7.721466 -7.0702515c4.264435 0 7.721451 3.1654663 7.721451 7.0702515c0 3.9047241 -3.457016 7.0701904 -7.721451 7.0701904c-4.26445 0 -7.721466 -3.1654663 -7.721466 -7.0701904m47.495544 0c0 -3.9047852 3.4570007 -7.0702515 7.721466 -7.0702515c4.264435 0 7.7214355 3.1654663 7.7214355 7.0702515c0 3.9047241 -3.4570007 7.0701904 -7.7214355 7.0701904c-4.2644653 0 -7.721466 -3.1654663 -7.721466 -7.0701904" fill-rule="evenodd"/>
        <path stroke="#595959" stroke-width="8.0" stroke-linejoin="round" stroke-linecap="butt" d="m230.65788 853.3444q40.176773 25.26538 80.25969 0" fill-rule="evenodd"/>
        <path stroke="#595959" stroke-width="8.0" stroke-linejoin="round" stroke-linecap="butt" d="m196.70866 823.7441l0 0c0 -37.48578 33.187332 -67.87402 74.12599 -67.87402c40.93863 0 74.12598 30.388245 74.12598 67.87402c0 37.48578 -33.187347 67.87402 -74.12598 67.87402c-40.93866 0 -74.12599 -30.388245 -74.12599 -67.87402z" fill-rule="evenodd"/>
        <path fill="#eeeeee" d="m628.7664 1387.6447l0 0c0 -9.5354 7.7299805 -17.26538 17.265442 -17.26538l152.99664 0c4.5791016 0 8.970642 1.8189697 12.208557 5.056885c3.237854 3.237915 5.056885 7.6295166 5.056885 12.208496l0 69.05969c0 9.535522 -7.7299805 17.265503 -17.265442 17.265503l-152.99664 0c-9.535461 0 -17.265442 -7.7299805 -17.265442 -17.265503z" fill-rule="evenodd"/>
        <path stroke="#595959" stroke-width="8.0" stroke-linejoin="round" stroke-linecap="butt" d="m628.7664 1387.6447l0 0c0 -9.5354 7.7299805 -17.26538 17.265442 -17.26538l152.99664 0c4.5791016 0 8.970642 1.8189697 12.208557 5.056885c3.237854 3.237915 5.056885 7.6295166 5.056885 12.208496l0 69.05969c0 9.535522 -7.7299805 17.265503 -17.265442 17.265503l-152.99664 0c-9.535461 0 -17.265442 -7.7299805 -17.265442 -17.265503z" fill-rule="evenodd"/>
        <path fill="#000000" d="m668.9892 1436.5746l-6.34375 -20.75l3.625 0l3.296875 11.984375l1.234375 4.453125q0.078125 -0.34375 1.078125 -4.28125l3.296875 -12.15625l3.609375 0l3.109375 12.03125l1.03125 3.96875l1.203125 -4.0l3.546875 -12.0l3.421875 0l-6.484375 20.75l-3.65625 0l-3.296875 -12.421875l-0.796875 -3.53125l-4.203125 15.953125l-3.671875 0zm23.746094 -10.375q0 -5.765625 3.203125 -8.53125q2.671875 -2.3125 6.53125 -2.3125q4.265625 0 6.984375 2.8125q2.71875 2.796875 2.71875 7.734375q0 4.015625 -1.203125 6.3125q-1.203125 2.28125 -3.5 3.5625q-2.296875 1.265625 -5.0 1.265625q-4.359375 0 -7.046875 -2.796875q-2.6875 -2.796875 -2.6875 -8.046875zm3.609375 0q0 3.984375 1.734375 5.96875q1.75 1.984375 4.390625 1.984375q2.609375 0 4.34375 -1.984375q1.75 -2.0 1.75 -6.078125q0 -3.859375 -1.75 -5.828125q-1.75 -1.984375 -4.34375 -1.984375q-2.640625 0 -4.390625 1.96875q-1.734375 1.96875 -1.734375 5.953125zm19.902344 10.375l0 -20.75l3.171875 0l0 3.15625q1.203125 -2.21875 2.234375 -2.921875q1.03125 -0.703125 2.25 -0.703125q1.78125 0 3.625 1.140625l-1.21875 3.265625q-1.28125 -0.765625 -2.578125 -0.765625q-1.15625 0 -2.078125 0.703125q-0.90625 0.6875 -1.296875 1.90625q-0.59375 1.875 -0.59375 4.109375l0 10.859375l-3.515625 0zm13.3828125 0l0 -28.640625l3.515625 0l0 16.328125l8.328125 -8.4375l4.546875 0l-7.9375 7.703125l8.734375 13.046875l-4.328125 0l-6.859375 -10.609375l-2.484375 2.390625l0 8.21875l-3.515625 0zm34.1875 -6.6875l3.625 0.453125q-0.859375 3.1875 -3.1875 4.953125q-2.3125 1.75 -5.9375 1.75q-4.546875 0 -7.21875 -2.796875q-2.65625 -2.8125 -2.65625 -7.875q0 -5.234375 2.6875 -8.125q2.703125 -2.890625 7.0 -2.890625q4.15625 0 6.796875 2.84375q2.640625 2.828125 2.640625 7.96875q0 0.3125 -0.03125 0.9375l-15.46875 0q0.203125 3.40625 1.9375 5.234375q1.734375 1.8125 4.34375 1.8125q1.921875 0 3.28125 -1.015625q1.375 -1.015625 2.1875 -3.25zm-11.546875 -5.671875l11.578125 0q-0.234375 -2.625 -1.328125 -3.9375q-1.671875 -2.03125 -4.359375 -2.03125q-2.421875 0 -4.078125 1.625q-1.640625 1.625 -1.8125 4.34375zm19.542969 12.359375l0 -20.75l3.171875 0l0 3.15625q1.203125 -2.21875 2.234375 -2.921875q1.03125 -0.703125 2.25 -0.703125q1.78125 0 3.625 1.140625l-1.21875 3.265625q-1.28125 -0.765625 -2.578125 -0.765625q-1.15625 0 -2.078125 0.703125q-0.90625 0.6875 -1.296875 1.90625q-0.59375 1.875 -0.59375 4.109375l0 10.859375l-3.515625 0z" fill-rule="nonzero"/>
        <path fill="#eeeeee" d="m866.2362 1387.6447l0 0c0 -9.5354 7.7300415 -17.26538 17.265442 -17.26538l152.99664 0c4.5791016 0 8.970703 1.8189697 12.208618 5.056885c3.237793 3.237915 5.056885 7.6295166 5.056885 12.208496l0 69.05969c0 9.535522 -7.7299805 17.265503 -17.265503 17.265503l-152.99664 0c-9.5354 0 -17.265442 -7.7299805 -17.265442 -17.265503z" fill-rule="evenodd"/>
        <path stroke="#595959" stroke-width="8.0" stroke-linejoin="round" stroke-linecap="butt" d="m866.2362 1387.6447l0 0c0 -9.5354 7.7300415 -17.26538 17.265442 -17.26538l152.99664 0c4.5791016 0 8.970703 1.8189697 12.208618 5.056885c3.237793 3.237915 5.056885 7.6295166 5.056885 12.208496l0 69.05969c0 9.535522 -7.7299805 17.265503 -17.265503 17.265503l-152.99664 0c-9.5354 0 -17.265442 -7.7299805 -17.265442 -17.265503z" fill-rule="evenodd"/>
        <path fill="#000000" d="m906.459 1436.5746l-6.34375 -20.75l3.625 0l3.296875 11.984375l1.234375 4.453125q0.078125 -0.34375 1.078125 -4.28125l3.296875 -12.15625l3.609375 0l3.109375 12.03125l1.03125 3.96875l1.203125 -4.0l3.546875 -12.0l3.421875 0l-6.484375 20.75l-3.65625 0l-3.296875 -12.421875l-0.796875 -3.53125l-4.203125 15.953125l-3.671875 0zm23.746094 -10.375q0 -5.765625 3.203125 -8.53125q2.671875 -2.3125 6.53125 -2.3125q4.265625 0 6.984375 2.8125q2.71875 2.796875 2.71875 7.734375q0 4.015625 -1.203125 6.3125q-1.203125 2.28125 -3.5 3.5625q-2.296875 1.265625 -5.0 1.265625q-4.359375 0 -7.046875 -2.796875q-2.6875 -2.796875 -2.6875 -8.046875zm3.609375 0q0 3.984375 1.734375 5.96875q1.75 1.984375 4.390625 1.984375q2.609375 0 4.34375 -1.984375q1.75 -2.0 1.75 -6.078125q0 -3.859375 -1.75 -5.828125q-1.75 -1.984375 -4.34375 -1.984375q-2.640625 0 -4.390625 1.96875q-1.734375 1.96875 -1.734375 5.953125zm19.902344 10.375l0 -20.75l3.171875 0l0 3.15625q1.203125 -2.21875 2.234375 -2.921875q1.03125 -0.703125 2.25 -0.703125q1.78125 0 3.625 1.140625l-1.21875 3.265625q-1.28125 -0.765625 -2.578125 -0.765625q-1.15625 0 -2.078125 0.703125q-0.90625 0.6875 -1.296875 1.90625q-0.59375 1.875 -0.59375 4.109375l0 10.859375l-3.515625 0zm13.3828125 0l0 -28.640625l3.515625 0l0 16.328125l8.328125 -8.4375l4.546875 0l-7.9375 7.703125l8.734375 13.046875l-4.328125 0l-6.859375 -10.609375l-2.484375 2.390625l0 8.21875l-3.515625 0zm34.1875 -6.6875l3.625 0.453125q-0.859375 3.1875 -3.1875 4.953125q-2.3125 1.75 -5.9375 1.75q-4.546875 0 -7.21875 -2.796875q-2.65625 -2.8125 -2.65625 -7.875q0 -5.234375 2.6875 -8.125q2.703125 -2.890625 7.0 -2.890625q4.15625 0 6.796875 2.84375q2.640625 2.828125 2.640625 7.96875q0 0.3125 -0.03125 0.9375l-15.46875 0q0.203125 3.40625 1.9375 5.234375q1.734375 1.8125 4.34375 1.8125q1.921875 0 3.28125 -1.015625q1.375 -1.015625 2.1875 -3.25zm-11.546875 -5.671875l11.578125 0q-0.234375 -2.625 -1.328125 -3.9375q-1.671875 -2.03125 -4.359375 -2.03125q-2.421875 0 -4.078125 1.625q-1.640625 1.625 -1.8125 4.34375zm19.542969 12.359375l0 -20.75l3.171875 0l0 3.15625q1.203125 -2.21875 2.234375 -2.921875q1.03125 -0.703125 2.25 -0.703125q1.78125 0 3.625 1.140625l-1.21875 3.265625q-1.28125 -0.765625 -2.578125 -0.765625q-1.15625 0 -2.078125 0.703125q-0.90625 0.6875 -1.296875 1.90625q-0.59375 1.875 -0.59375 4.109375l0 10.859375l-3.515625 0z" fill-rule="nonzero"/>
        <path fill="#eeeeee" d="m1103.706 1387.6447l0 0c0 -9.5354 7.7299805 -17.26538 17.26538 -17.26538l152.9967 0c4.5791016 0 8.970581 1.8189697 12.208496 5.056885c3.237915 3.237915 5.057007 7.6295166 5.057007 12.208496l0 69.05969c0 9.535522 -7.7301025 17.265503 -17.265503 17.265503l-152.9967 0c-9.5354 0 -17.26538 -7.7299805 -17.26538 -17.265503z" fill-rule="evenodd"/>
        <path stroke="#595959" stroke-width="8.0" stroke-linejoin="round" stroke-linecap="butt" d="m1103.706 1387.6447l0 0c0 -9.5354 7.7299805 -17.26538 17.26538 -17.26538l152.9967 0c4.5791016 0 8.970581 1.8189697 12.208496 5.056885c3.237915 3.237915 5.057007 7.6295166 5.057007 12.208496l0 69.05969c0 9.535522 -7.7301025 17.265503 -17.265503 17.265503l-152.9967 0c-9.5354 0 -17.26538 -7.7299805 -17.26538 -17.265503z" fill-rule="evenodd"/>
        <path fill="#000000" d="m1143.9288 1436.5746l-6.34375 -20.75l3.625 0l3.296875 11.984375l1.234375 4.453125q0.078125 -0.34375 1.078125 -4.28125l3.296875 -12.15625l3.609375 0l3.109375 12.03125l1.03125 3.96875l1.203125 -4.0l3.546875 -12.0l3.421875 0l-6.484375 20.75l-3.65625 0l-3.296875 -12.421875l-0.796875 -3.53125l-4.203125 15.953125l-3.671875 0zm23.746094 -10.375q0 -5.765625 3.203125 -8.53125q2.671875 -2.3125 6.53125 -2.3125q4.265625 0 6.984375 2.8125q2.71875 2.796875 2.71875 7.734375q0 4.015625 -1.203125 6.3125q-1.203125 2.28125 -3.5 3.5625q-2.296875 1.265625 -5.0 1.265625q-4.359375 0 -7.046875 -2.796875q-2.6875 -2.796875 -2.6875 -8.046875zm3.609375 0q0 3.984375 1.734375 5.96875q1.75 1.984375 4.390625 1.984375q2.609375 0 4.34375 -1.984375q1.75 -2.0 1.75 -6.078125q0 -3.859375 -1.75 -5.828125q-1.75 -1.984375 -4.34375 -1.984375q-2.640625 0 -4.390625 1.96875q-1.734375 1.96875 -1.734375 5.953125zm19.902344 10.375l0 -20.75l3.171875 0l0 3.15625q1.203125 -2.21875 2.234375 -2.921875q1.03125 -0.703125 2.25 -0.703125q1.78125 0 3.625 1.140625l-1.21875 3.265625q-1.28125 -0.765625 -2.578125 -0.765625q-1.15625 0 -2.078125 0.703125q-0.90625 0.6875 -1.296875 1.90625q-0.59375 1.875 -0.59375 4.109375l0 10.859375l-3.515625 0zm13.3828125 0l0 -28.640625l3.515625 0l0 16.328125l8.328125 -8.4375l4.546875 0l-7.9375 7.703125l8.734375 13.046875l-4.328125 0l-6.859375 -10.609375l-2.484375 2.390625l0 8.21875l-3.515625 0zm34.1875 -6.6875l3.625 0.453125q-0.859375 3.1875 -3.1875 4.953125q-2.3125 1.75 -5.9375 1.75q-4.546875 0 -7.21875 -2.796875q-2.65625 -2.8125 -2.65625 -7.875q0 -5.234375 2.6875 -8.125q2.703125 -2.890625 7.0 -2.890625q4.15625 0 6.796875 2.84375q2.640625 2.828125 2.640625 7.96875q0 0.3125 -0.03125 0.9375l-15.46875 0q0.203125 3.40625 1.9375 5.234375q1.734375 1.8125 4.34375 1.8125q1.921875 0 3.28125 -1.015625q1.375 -1.015625 2.1875 -3.25zm-11.546875 -5.671875l11.578125 0q-0.234375 -2.625 -1.328125 -3.9375q-1.671875 -2.03125 -4.359375 -2.03125q-2.421875 0 -4.078125 1.625q-1.640625 1.625 -1.8125 4.34375zm19.542969 12.359375l0 -20.75l3.171875 0l0 3.15625q1.203125 -2.21875 2.234375 -2.921875q1.03125 -0.703125 2.25 -0.703125q1.78125 0 3.625 1.140625l-1.21875 3.265625q-1.28125 -0.765625 -2.578125 -0.765625q-1.15625 0 -2.078125 0.703125q-0.90625 0.6875 -1.296875 1.90625q-0.59375 1.875 -0.59375 4.109375l0 10.859375l-3.515625 0z" fill-rule="nonzero"/>
        <path fill="#eeeeee" d="m1084.9343 983.8599l0 0c0 -9.535461 7.7301025 -17.265442 17.265503 -17.265442l190.54004 0c4.5789795 0 8.970581 1.8190308 12.208496 5.056946c3.237793 3.237915 5.056885 7.6293945 5.056885 12.208496l0 69.05963c0 9.535522 -7.7299805 17.265503 -17.26538 17.265503l-190.54004 0c-9.5354 0 -17.265503 -7.7299805 -17.265503 -17.265503z" fill-rule="evenodd"/>
        <path stroke="#595959" stroke-width="8.0" stroke-linejoin="round" stroke-linecap="butt" d="m1084.9343 983.8599l0 0c0 -9.535461 7.7301025 -17.265442 17.265503 -17.265442l190.54004 0c4.5789795 0 8.970581 1.8190308 12.208496 5.056946c3.237793 3.237915 5.056885 7.6293945 5.056885 12.208496l0 69.05963c0 9.535522 -7.7299805 17.265503 -17.26538 17.265503l-190.54004 0c-9.5354 0 -17.265503 -7.7299805 -17.265503 -17.265503z" fill-rule="evenodd"/>
        <path fill="#000000" d="m1155.9152 1008.78973l0 -28.640625l3.78125 0l0 25.265625l14.109375 0l0 3.375l-17.890625 0zm20.636719 -10.375q0 -5.765625 3.203125 -8.53125q2.671875 -2.3125 6.53125 -2.3125q4.265625 0 6.984375 2.8125q2.71875 2.796875 2.71875 7.734375q0 4.015625 -1.203125 6.3125q-1.203125 2.28125 -3.5 3.5625q-2.296875 1.265625 -5.0 1.265625q-4.359375 0 -7.046875 -2.796875q-2.6875 -2.796875 -2.6875 -8.046875zm3.609375 0q0 3.984375 1.734375 5.96875q1.75 1.984375 4.390625 1.984375q2.609375 0 4.34375 -1.984375q1.75 -2.0 1.75 -6.078125q0 -3.859375 -1.75 -5.828125q-1.75 -1.984375 -4.34375 -1.984375q-2.640625 0 -4.390625 1.96875q-1.734375 1.96875 -1.734375 5.953125zm33.48047 7.8125q-1.953125 1.65625 -3.765625 2.34375q-1.796875 0.6875 -3.875 0.6875q-3.40625 0 -5.25 -1.671875q-1.828125 -1.671875 -1.828125 -4.265625q0 -1.53125 0.6875 -2.78125q0.6875 -1.265625 1.8125 -2.015625q1.125 -0.765625 2.53125 -1.15625q1.03125 -0.28125 3.125 -0.53125q4.265625 -0.515625 6.265625 -1.21875q0.03125 -0.71875 0.03125 -0.90625q0 -2.15625 -1.0 -3.03125q-1.34375 -1.1875 -4.0 -1.1875q-2.484375 0 -3.671875 0.875q-1.171875 0.859375 -1.75 3.0625l-3.4375 -0.46875q0.46875 -2.203125 1.546875 -3.5625q1.078125 -1.359375 3.109375 -2.09375q2.03125 -0.734375 4.703125 -0.734375q2.65625 0 4.3125 0.625q1.671875 0.625 2.453125 1.578125q0.78125 0.953125 1.09375 2.390625q0.171875 0.90625 0.171875 3.25l0 4.6875q0 4.890625 0.21875 6.203125q0.234375 1.296875 0.890625 2.484375l-3.671875 0q-0.546875 -1.09375 -0.703125 -2.5625zm-0.296875 -7.84375q-1.90625 0.78125 -5.734375 1.328125q-2.171875 0.3125 -3.078125 0.703125q-0.890625 0.390625 -1.375 1.140625q-0.484375 0.75 -0.484375 1.671875q0 1.40625 1.0625 2.34375q1.0625 0.9375 3.109375 0.9375q2.03125 0 3.609375 -0.890625q1.59375 -0.890625 2.328125 -2.4375q0.5625 -1.1875 0.5625 -3.515625l0 -1.28125zm22.464844 10.40625l0 -2.625q-1.96875 3.09375 -5.796875 3.09375q-2.484375 0 -4.5625 -1.359375q-2.078125 -1.375 -3.21875 -3.828125q-1.140625 -2.453125 -1.140625 -5.640625q0 -3.09375 1.03125 -5.625q1.03125 -2.53125 3.09375 -3.875q2.078125 -1.359375 4.640625 -1.359375q1.875 0 3.328125 0.796875q1.46875 0.796875 2.390625 2.0625l0 -10.28125l3.5 0l0 28.640625l-3.265625 0zm-11.109375 -10.359375q0 3.984375 1.671875 5.96875q1.6875 1.96875 3.96875 1.96875q2.3125 0 3.921875 -1.875q1.609375 -1.890625 1.609375 -5.765625q0 -4.25 -1.640625 -6.234375q-1.640625 -2.0 -4.046875 -2.0q-2.34375 0 -3.921875 1.921875q-1.5625 1.90625 -1.5625 6.015625z" fill-rule="nonzero"/>
        <path fill="#000000" d="m1126.6261 1056.7898l-3.25 0l0 -28.640625l3.515625 0l0 10.21875q2.21875 -2.796875 5.671875 -2.796875q1.921875 0 3.625 0.78125q1.71875 0.765625 2.8125 2.171875q1.109375 1.390625 1.734375 3.359375q0.625 1.96875 0.625 4.21875q0 5.328125 -2.640625 8.25q-2.640625 2.90625 -6.328125 2.90625q-3.671875 0 -5.765625 -3.0625l0 2.59375zm-0.03125 -10.53125q0 3.734375 1.015625 5.390625q1.65625 2.71875 4.484375 2.71875q2.3125 0 3.984375 -2.0q1.6875 -2.0 1.6875 -5.96875q0 -4.0625 -1.609375 -6.0q-1.609375 -1.9375 -3.90625 -1.9375q-2.296875 0 -3.984375 2.015625q-1.671875 2.0 -1.671875 5.78125zm32.57422 7.96875q-1.953125 1.65625 -3.765625 2.34375q-1.796875 0.6875 -3.875 0.6875q-3.40625 0 -5.25 -1.671875q-1.828125 -1.671875 -1.828125 -4.265625q0 -1.53125 0.6875 -2.78125q0.6875 -1.265625 1.8125 -2.015625q1.125 -0.765625 2.53125 -1.15625q1.03125 -0.28125 3.125 -0.53125q4.265625 -0.515625 6.265625 -1.21875q0.03125 -0.71875 0.03125 -0.90625q0 -2.15625 -1.0 -3.03125q-1.34375 -1.1875 -4.0 -1.1875q-2.484375 0 -3.671875 0.875q-1.171875 0.859375 -1.75 3.0625l-3.4375 -0.46875q0.46875 -2.203125 1.546875 -3.5625q1.078125 -1.359375 3.109375 -2.09375q2.03125 -0.734375 4.703125 -0.734375q2.65625 0 4.3125 0.625q1.671875 0.625 2.453125 1.578125q0.78125 0.953125 1.09375 2.390625q0.171875 0.90625 0.171875 3.25l0 4.6875q0 4.890625 0.21875 6.203125q0.234375 1.296875 0.890625 2.484375l-3.671875 0q-0.546875 -1.09375 -0.703125 -2.5625zm-0.296875 -7.84375q-1.90625 0.78125 -5.734375 1.328125q-2.171875 0.3125 -3.078125 0.703125q-0.890625 0.390625 -1.375 1.140625q-0.484375 0.75 -0.484375 1.671875q0 1.40625 1.0625 2.34375q1.0625 0.9375 3.109375 0.9375q2.03125 0 3.609375 -0.890625q1.59375 -0.890625 2.328125 -2.4375q0.5625 -1.1875 0.5625 -3.515625l0 -1.28125zm8.933594 10.40625l0 -28.640625l3.515625 0l0 28.640625l-3.515625 0zm22.496094 -2.5625q-1.953125 1.65625 -3.765625 2.34375q-1.796875 0.6875 -3.875 0.6875q-3.40625 0 -5.25 -1.671875q-1.828125 -1.671875 -1.828125 -4.265625q0 -1.53125 0.6875 -2.78125q0.6875 -1.265625 1.8125 -2.015625q1.125 -0.765625 2.53125 -1.15625q1.03125 -0.28125 3.125 -0.53125q4.265625 -0.515625 6.265625 -1.21875q0.03125 -0.71875 0.03125 -0.90625q0 -2.15625 -1.0 -3.03125q-1.34375 -1.1875 -4.0 -1.1875q-2.484375 0 -3.671875 0.875q-1.171875 0.859375 -1.75 3.0625l-3.4375 -0.46875q0.46875 -2.203125 1.546875 -3.5625q1.078125 -1.359375 3.109375 -2.09375q2.03125 -0.734375 4.703125 -0.734375q2.65625 0 4.3125 0.625q1.671875 0.625 2.453125 1.578125q0.78125 0.953125 1.09375 2.390625q0.171875 0.90625 0.171875 3.25l0 4.6875q0 4.890625 0.21875 6.203125q0.234375 1.296875 0.890625 2.484375l-3.671875 0q-0.546875 -1.09375 -0.703125 -2.5625zm-0.296875 -7.84375q-1.90625 0.78125 -5.734375 1.328125q-2.171875 0.3125 -3.078125 0.703125q-0.890625 0.390625 -1.375 1.140625q-0.484375 0.75 -0.484375 1.671875q0 1.40625 1.0625 2.34375q1.0625 0.9375 3.109375 0.9375q2.03125 0 3.609375 -0.890625q1.59375 -0.890625 2.328125 -2.4375q0.5625 -1.1875 0.5625 -3.515625l0 -1.28125zm9.011719 10.40625l0 -20.75l3.15625 0l0 2.953125q2.296875 -3.421875 6.609375 -3.421875q1.875 0 3.4375 0.6875q1.578125 0.671875 2.359375 1.765625q0.78125 1.09375 1.09375 2.59375q0.203125 0.96875 0.203125 3.421875l0 12.75l-3.515625 0l0 -12.625q0 -2.140625 -0.421875 -3.203125q-0.40625 -1.0625 -1.453125 -1.703125q-1.046875 -0.640625 -2.453125 -0.640625q-2.234375 0 -3.875 1.4375q-1.625 1.421875 -1.625 5.40625l0 11.328125l-3.515625 0zm35.777344 -7.59375l3.453125 0.4375q-0.5625 3.578125 -2.90625 5.609375q-2.328125 2.015625 -5.71875 2.015625q-4.265625 0 -6.859375 -2.78125q-2.578125 -2.78125 -2.578125 -7.984375q0 -3.359375 1.109375 -5.875q1.125 -2.515625 3.390625 -3.78125q2.28125 -1.265625 4.953125 -1.265625q3.375 0 5.515625 1.71875q2.15625 1.703125 2.765625 4.84375l-3.421875 0.53125q-0.484375 -2.09375 -1.734375 -3.140625q-1.234375 -1.0625 -2.984375 -1.0625q-2.65625 0 -4.328125 1.90625q-1.65625 1.90625 -1.65625 6.03125q0 4.171875 1.59375 6.078125q1.609375 1.890625 4.1875 1.890625q2.078125 0 3.453125 -1.265625q1.390625 -1.28125 1.765625 -3.90625zm20.671875 0.90625l3.625 0.453125q-0.859375 3.1875 -3.1875 4.953125q-2.3125 1.75 -5.9375 1.75q-4.546875 0 -7.21875 -2.796875q-2.65625 -2.8125 -2.65625 -7.875q0 -5.234375 2.6875 -8.125q2.703125 -2.890625 7.0 -2.890625q4.15625 0 6.796875 2.84375q2.640625 2.828125 2.640625 7.96875q0 0.3125 -0.03125 0.9375l-15.46875 0q0.203125 3.40625 1.9375 5.234375q1.734375 1.8125 4.34375 1.8125q1.921875 0 3.28125 -1.015625q1.375 -1.015625 2.1875 -3.25zm-11.546875 -5.671875l11.578125 0q-0.234375 -2.625 -1.328125 -3.9375q-1.671875 -2.03125 -4.359375 -2.03125q-2.421875 0 -4.078125 1.625q-1.640625 1.625 -1.8125 4.34375zm19.542969 12.359375l0 -20.75l3.171875 0l0 3.15625q1.203125 -2.21875 2.234375 -2.921875q1.03125 -0.703125 2.25 -0.703125q1.78125 0 3.625 1.140625l-1.21875 3.265625q-1.28125 -0.765625 -2.578125 -0.765625q-1.15625 0 -2.078125 0.703125q-0.90625 0.6875 -1.296875 1.90625q-0.59375 1.875 -0.59375 4.109375l0 10.859375l-3.515625 0z" fill-rule="nonzero"/>
        <path fill="#eeeeee" d="m1623.3491 1070.185l187.52747 0l0 118.236206l-187.52747 0z" fill-rule="evenodd"/>
        <path stroke="#595959" stroke-width="8.0" stroke-linejoin="round" stroke-linecap="butt" d="m1623.3491 1070.185l187.52747 0l0 118.236206l-187.52747 0z" fill-rule="evenodd"/>
        <path fill="#000000" d="m1662.8356 1133.3281q0 -5.765625 3.203125 -8.53125q2.671875 -2.3125 6.53125 -2.3125q4.265625 0 6.984375 2.8125q2.71875 2.796875 2.71875 7.734375q0 4.015625 -1.203125 6.3125q-1.203125 2.28125 -3.5 3.5625q-2.296875 1.265625 -5.0 1.265625q-4.359375 0 -7.046875 -2.796875q-2.6875 -2.796875 -2.6875 -8.046875zm3.609375 0q0 3.984375 1.734375 5.96875q1.75 1.984375 4.390625 1.984375q2.609375 0 4.34375 -1.984375q1.75 -2.0 1.75 -6.078125q0 -3.859375 -1.75 -5.828125q-1.75 -1.984375 -4.34375 -1.984375q-2.640625 0 -4.390625 1.96875q-1.734375 1.96875 -1.734375 5.953125zm33.54297 10.375l0 -3.046875q-2.421875 3.515625 -6.578125 3.515625q-1.84375 0 -3.4375 -0.703125q-1.59375 -0.703125 -2.359375 -1.765625q-0.765625 -1.0625 -1.078125 -2.609375q-0.21875 -1.03125 -0.21875 -3.28125l0 -12.859375l3.515625 0l0 11.515625q0 2.75 0.21875 3.703125q0.328125 1.390625 1.390625 2.1875q1.078125 0.78125 2.671875 0.78125q1.578125 0 2.953125 -0.8125q1.390625 -0.8125 1.96875 -2.203125q0.578125 -1.390625 0.578125 -4.046875l0 -11.125l3.515625 0l0 20.75l-3.140625 0zm16.324219 -3.140625l0.515625 3.09375q-1.484375 0.328125 -2.65625 0.328125q-1.921875 0 -2.984375 -0.609375q-1.046875 -0.609375 -1.484375 -1.59375q-0.421875 -0.984375 -0.421875 -4.15625l0 -11.9375l-2.578125 0l0 -2.734375l2.578125 0l0 -5.125l3.5 -2.109375l0 7.234375l3.53125 0l0 2.734375l-3.53125 0l0 12.140625q0 1.5 0.1875 1.9375q0.1875 0.421875 0.59375 0.671875q0.421875 0.25 1.203125 0.25q0.59375 0 1.546875 -0.125zm3.4414062 11.09375l0 -28.703125l3.203125 0l0 2.703125q1.125 -1.578125 2.546875 -2.375q1.4375 -0.796875 3.46875 -0.796875q2.65625 0 4.6875 1.375q2.03125 1.359375 3.0625 3.859375q1.03125 2.484375 1.03125 5.453125q0 3.1875 -1.140625 5.734375q-1.140625 2.546875 -3.328125 3.90625q-2.171875 1.359375 -4.5625 1.359375q-1.765625 0 -3.171875 -0.734375q-1.390625 -0.75 -2.28125 -1.890625l0 10.109375l-3.515625 0zm3.1875 -18.203125q0 4.0 1.609375 5.921875q1.625 1.90625 3.9375 1.90625q2.34375 0 4.0 -1.984375q1.671875 -1.984375 1.671875 -6.140625q0 -3.96875 -1.625 -5.9375q-1.625 -1.96875 -3.890625 -1.96875q-2.25 0 -3.984375 2.09375q-1.71875 2.09375 -1.71875 6.109375zm32.652344 10.25l0 -3.046875q-2.421875 3.515625 -6.578125 3.515625q-1.84375 0 -3.4375 -0.703125q-1.59375 -0.703125 -2.359375 -1.765625q-0.765625 -1.0625 -1.078125 -2.609375q-0.21875 -1.03125 -0.21875 -3.28125l0 -12.859375l3.515625 0l0 11.515625q0 2.75 0.21875 3.703125q0.328125 1.390625 1.390625 2.1875q1.078125 0.78125 2.671875 0.78125q1.578125 0 2.953125 -0.8125q1.390625 -0.8125 1.96875 -2.203125q0.578125 -1.390625 0.578125 -4.046875l0 -11.125l3.515625 0l0 20.75l-3.140625 0zm16.324219 -3.140625l0.515625 3.09375q-1.484375 0.328125 -2.65625 0.328125q-1.921875 0 -2.984375 -0.609375q-1.046875 -0.609375 -1.484375 -1.59375q-0.421875 -0.984375 -0.421875 -4.15625l0 -11.9375l-2.578125 0l0 -2.734375l2.578125 0l0 -5.125l3.5 -2.109375l0 7.234375l3.53125 0l0 2.734375l-3.53125 0l0 12.140625q0 1.5 0.1875 1.9375q0.1875 0.421875 0.59375 0.671875q0.421875 0.25 1.203125 0.25q0.59375 0 1.546875 -0.125z" fill-rule="nonzero"/>
        <path fill="#eeeeee" d="m1713.6483 1188.4213l6.929077 0l0 35.77954l-6.929077 0z" fill-rule="evenodd"/>
        <path stroke="#595959" stroke-width="8.0" stroke-linejoin="round" stroke-linecap="butt" d="m1713.6483 1188.4213l6.929077 0l0 35.77954l-6.929077 0z" fill-rule="evenodd"/>
        <path fill="#eeeeee" d="m1672.294 1224.2008l89.63782 0l0 6.8031006l-89.63782 0z" fill-rule="evenodd"/>
        <path stroke="#595959" stroke-width="8.0" stroke-linejoin="round" stroke-linecap="butt" d="m1672.294 1224.2008l89.63782 0l0 6.8031006l-89.63782 0z" fill-rule="evenodd"/>
        <path fill="#eeeeee" d="m1623.3491 1270.2506l187.52747 0l0 118.236206l-187.52747 0z" fill-rule="evenodd"/>
        <path stroke="#595959" stroke-width="8.0" stroke-linejoin="round" stroke-linecap="butt" d="m1623.3491 1270.2506l187.52747 0l0 118.236206l-187.52747 0z" fill-rule="evenodd"/>
        <path fill="#000000" d="m1662.8356 1333.3938q0 -5.765625 3.203125 -8.53125q2.671875 -2.3125 6.53125 -2.3125q4.265625 0 6.984375 2.8125q2.71875 2.796875 2.71875 7.734375q0 4.015625 -1.203125 6.3125q-1.203125 2.28125 -3.5 3.5625q-2.296875 1.265625 -5.0 1.265625q-4.359375 0 -7.046875 -2.796875q-2.6875 -2.796875 -2.6875 -8.046875zm3.609375 0q0 3.984375 1.734375 5.96875q1.75 1.984375 4.390625 1.984375q2.609375 0 4.34375 -1.984375q1.75 -2.0 1.75 -6.078125q0 -3.859375 -1.75 -5.828125q-1.75 -1.984375 -4.34375 -1.984375q-2.640625 0 -4.390625 1.96875q-1.734375 1.96875 -1.734375 5.953125zm33.54297 10.375l0 -3.046875q-2.421875 3.515625 -6.578125 3.515625q-1.84375 0 -3.4375 -0.703125q-1.59375 -0.703125 -2.359375 -1.765625q-0.765625 -1.0625 -1.078125 -2.609375q-0.21875 -1.03125 -0.21875 -3.28125l0 -12.859375l3.515625 0l0 11.515625q0 2.75 0.21875 3.703125q0.328125 1.390625 1.390625 2.1875q1.078125 0.78125 2.671875 0.78125q1.578125 0 2.953125 -0.8125q1.390625 -0.8125 1.96875 -2.203125q0.578125 -1.390625 0.578125 -4.046875l0 -11.125l3.515625 0l0 20.75l-3.140625 0zm16.324219 -3.140625l0.515625 3.09375q-1.484375 0.328125 -2.65625 0.328125q-1.921875 0 -2.984375 -0.609375q-1.046875 -0.609375 -1.484375 -1.59375q-0.421875 -0.984375 -0.421875 -4.15625l0 -11.9375l-2.578125 0l0 -2.734375l2.578125 0l0 -5.125l3.5 -2.109375l0 7.234375l3.53125 0l0 2.734375l-3.53125 0l0 12.140625q0 1.5 0.1875 1.9375q0.1875 0.421875 0.59375 0.671875q0.421875 0.25 1.203125 0.25q0.59375 0 1.546875 -0.125zm3.4414062 11.09375l0 -28.703125l3.203125 0l0 2.703125q1.125 -1.578125 2.546875 -2.375q1.4375 -0.796875 3.46875 -0.796875q2.65625 0 4.6875 1.375q2.03125 1.359375 3.0625 3.859375q1.03125 2.484375 1.03125 5.453125q0 3.1875 -1.140625 5.734375q-1.140625 2.546875 -3.328125 3.90625q-2.171875 1.359375 -4.5625 1.359375q-1.765625 0 -3.171875 -0.734375q-1.390625 -0.75 -2.28125 -1.890625l0 10.109375l-3.515625 0zm3.1875 -18.203125q0 4.0 1.609375 5.921875q1.625 1.90625 3.9375 1.90625q2.34375 0 4.0 -1.984375q1.671875 -1.984375 1.671875 -6.140625q0 -3.96875 -1.625 -5.9375q-1.625 -1.96875 -3.890625 -1.96875q-2.25 0 -3.984375 2.09375q-1.71875 2.09375 -1.71875 6.109375zm32.652344 10.25l0 -3.046875q-2.421875 3.515625 -6.578125 3.515625q-1.84375 0 -3.4375 -0.703125q-1.59375 -0.703125 -2.359375 -1.765625q-0.765625 -1.0625 -1.078125 -2.609375q-0.21875 -1.03125 -0.21875 -3.28125l0 -12.859375l3.515625 0l0 11.515625q0 2.75 0.21875 3.703125q0.328125 1.390625 1.390625 2.1875q1.078125 0.78125 2.671875 0.78125q1.578125 0 2.953125 -0.8125q1.390625 -0.8125 1.96875 -2.203125q0.578125 -1.390625 0.578125 -4.046875l0 -11.125l3.515625 0l0 20.75l-3.140625 0zm16.324219 -3.140625l0.515625 3.09375q-1.484375 0.328125 -2.65625 0.328125q-1.921875 0 -2.984375 -0.609375q-1.046875 -0.609375 -1.484375 -1.59375q-0.421875 -0.984375 -0.421875 -4.15625l0 -11.9375l-2.578125 0l0 -2.734375l2.578125 0l0 -5.125l3.5 -2.109375l0 7.234375l3.53125 0l0 2.734375l-3.53125 0l0 12.140625q0 1.5 0.1875 1.9375q0.1875 0.421875 0.59375 0.671875q0.421875 0.25 1.203125 0.25q0.59375 0 1.546875 -0.125z" fill-rule="nonzero"/>
        <path fill="#eeeeee" d="m1713.6483 1388.4868l6.929077 0l0 35.77954l-6.929077 0z" fill-rule="evenodd"/>
        <path stroke="#595959" stroke-width="8.0" stroke-linejoin="round" stroke-linecap="butt" d="m1713.6483 1388.4868l6.929077 0l0 35.77954l-6.929077 0z" fill-rule="evenodd"/>
        <path fill="#eeeeee" d="m1672.294 1424.2664l89.63782 0l0 6.8032227l-89.63782 0z" fill-rule="evenodd"/>
        <path stroke="#595959" stroke-width="8.0" stroke-linejoin="round" stroke-linecap="butt" d="m1672.294 1424.2664l89.63782 0l0 6.8032227l-89.63782 0z" fill-rule="evenodd"/>
        <path fill="#eeeeee" d="m628.7664 937.9803l187.52753 0l0 118.23627l-187.52753 0z" fill-rule="evenodd"/>
        <path stroke="#595959" stroke-width="8.0" stroke-linejoin="round" stroke-linecap="butt" d="m628.7664 937.9803l187.52753 0l0 118.23627l-187.52753 0z" fill-rule="evenodd"/>
        <path fill="#000000" d="m702.17865 958.8578l3.796875 0l0 16.546875q0 4.3125 -0.984375 6.859375q-0.96875 2.53125 -3.53125 4.125q-2.546875 1.59375 -6.6875 1.59375q-4.015625 0 -6.578125 -1.375q-2.5625 -1.390625 -3.65625 -4.015625q-1.09375 -2.640625 -1.09375 -7.1875l0 -16.546875l3.796875 0l0 16.53125q0 3.734375 0.6875 5.5q0.703125 1.765625 2.390625 2.71875q1.6875 0.953125 4.125 0.953125q4.1875 0 5.953125 -1.890625q1.78125 -1.890625 1.78125 -7.28125l0 -16.53125zm8.246094 22.453125l3.46875 -0.546875q0.296875 2.078125 1.625 3.203125q1.34375 1.109375 3.75 1.109375q2.421875 0 3.59375 -0.984375q1.171875 -0.984375 1.171875 -2.3125q0 -1.203125 -1.03125 -1.875q-0.71875 -0.46875 -3.59375 -1.203125q-3.875 -0.96875 -5.375 -1.671875q-1.484375 -0.71875 -2.265625 -1.984375q-0.765625 -1.265625 -0.765625 -2.78125q0 -1.390625 0.640625 -2.5625q0.640625 -1.1875 1.734375 -1.96875q0.8125 -0.609375 2.21875 -1.03125q1.421875 -0.421875 3.046875 -0.421875q2.4375 0 4.28125 0.703125q1.859375 0.703125 2.734375 1.90625q0.875 1.203125 1.203125 3.21875l-3.4375 0.46875q-0.234375 -1.609375 -1.359375 -2.5q-1.109375 -0.90625 -3.171875 -0.90625q-2.421875 0 -3.453125 0.8125q-1.03125 0.796875 -1.03125 1.875q0 0.671875 0.421875 1.21875q0.4375 0.578125 1.359375 0.9375q0.515625 0.203125 3.09375 0.90625q3.734375 1.0 5.203125 1.640625q1.484375 0.625 2.3125 1.84375q0.84375 1.203125 0.84375 3.0q0 1.75 -1.03125 3.3125q-1.015625 1.546875 -2.953125 2.40625q-1.921875 0.84375 -4.375 0.84375q-4.03125 0 -6.15625 -1.671875q-2.125 -1.6875 -2.703125 -4.984375zm35.609375 -0.5l3.625 0.453125q-0.859375 3.1875 -3.1875 4.953125q-2.3125 1.75 -5.9375 1.75q-4.546875 0 -7.21875 -2.796875q-2.65625 -2.8125 -2.65625 -7.875q0 -5.234375 2.6875 -8.125q2.703125 -2.890625 7.0 -2.890625q4.15625 0 6.796875 2.84375q2.640625 2.828125 2.640625 7.96875q0 0.3125 -0.03125 0.9375l-15.46875 0q0.203125 3.40625 1.9375 5.234375q1.734375 1.8125 4.34375 1.8125q1.921875 0 3.28125 -1.015625q1.375 -1.015625 2.1875 -3.25zm-11.546875 -5.671875l11.578125 0q-0.234375 -2.625 -1.328125 -3.9375q-1.671875 -2.03125 -4.359375 -2.03125q-2.421875 0 -4.078125 1.625q-1.640625 1.625 -1.8125 4.34375zm19.542969 12.359375l0 -20.75l3.171875 0l0 3.15625q1.203125 -2.21875 2.234375 -2.921875q1.03125 -0.703125 2.25 -0.703125q1.78125 0 3.625 1.140625l-1.21875 3.265625q-1.28125 -0.765625 -2.578125 -0.765625q-1.15625 0 -2.078125 0.703125q-0.90625 0.6875 -1.296875 1.90625q-0.59375 1.875 -0.59375 4.109375l0 10.859375l-3.515625 0z" fill-rule="nonzero"/>
        <path fill="#000000" d="m648.4423 1035.4984l0 -28.640625l3.78125 0l0 28.640625l-3.78125 0zm10.019531 0l0 -20.75l3.15625 0l0 2.953125q2.296875 -3.421875 6.609375 -3.421875q1.875 0 3.4375 0.6875q1.578125 0.671875 2.359375 1.765625q0.78125 1.09375 1.09375 2.59375q0.203125 0.96875 0.203125 3.421875l0 12.75l-3.515625 0l0 -12.625q0 -2.140625 -0.421875 -3.203125q-0.40625 -1.0625 -1.453125 -1.703125q-1.046875 -0.640625 -2.453125 -0.640625q-2.234375 0 -3.875 1.4375q-1.625 1.421875 -1.625 5.40625l0 11.328125l-3.515625 0zm29.917969 -3.140625l0.515625 3.09375q-1.484375 0.328125 -2.65625 0.328125q-1.921875 0 -2.984375 -0.609375q-1.046875 -0.609375 -1.484375 -1.59375q-0.421875 -0.984375 -0.421875 -4.15625l0 -11.9375l-2.578125 0l0 -2.734375l2.578125 0l0 -5.125l3.5 -2.109375l0 7.234375l3.53125 0l0 2.734375l-3.53125 0l0 12.140625q0 1.5 0.1875 1.9375q0.1875 0.421875 0.59375 0.671875q0.421875 0.25 1.203125 0.25q0.59375 0 1.546875 -0.125zm17.644531 -3.546875l3.625 0.453125q-0.859375 3.1875 -3.1875 4.953125q-2.3125 1.75 -5.9375 1.75q-4.546875 0 -7.21875 -2.796875q-2.65625 -2.8125 -2.65625 -7.875q0 -5.234375 2.6875 -8.125q2.703125 -2.890625 7.0 -2.890625q4.15625 0 6.796875 2.84375q2.640625 2.828125 2.640625 7.96875q0 0.3125 -0.03125 0.9375l-15.46875 0q0.203125 3.40625 1.9375 5.234375q1.734375 1.8125 4.34375 1.8125q1.921875 0 3.28125 -1.015625q1.375 -1.015625 2.1875 -3.25zm-11.546875 -5.671875l11.578125 0q-0.234375 -2.625 -1.328125 -3.9375q-1.671875 -2.03125 -4.359375 -2.03125q-2.421875 0 -4.078125 1.625q-1.640625 1.625 -1.8125 4.34375zm19.542969 12.359375l0 -20.75l3.171875 0l0 3.15625q1.203125 -2.21875 2.234375 -2.921875q1.03125 -0.703125 2.25 -0.703125q1.78125 0 3.625 1.140625l-1.21875 3.265625q-1.28125 -0.765625 -2.578125 -0.765625q-1.15625 0 -2.078125 0.703125q-0.90625 0.6875 -1.296875 1.90625q-0.59375 1.875 -0.59375 4.109375l0 10.859375l-3.515625 0zm14.2109375 0l0 -18.015625l-3.109375 0l0 -2.734375l3.109375 0l0 -2.203125q0 -2.09375 0.359375 -3.109375q0.515625 -1.359375 1.796875 -2.203125q1.28125 -0.859375 3.578125 -0.859375q1.484375 0 3.28125 0.359375l-0.53125 3.0625q-1.09375 -0.203125 -2.0625 -0.203125q-1.609375 0 -2.28125 0.6875q-0.65625 0.6875 -0.65625 2.5625l0 1.90625l4.046875 0l0 2.734375l-4.046875 0l0 18.015625l-3.484375 0zm23.800781 -2.5625q-1.953125 1.65625 -3.765625 2.34375q-1.796875 0.6875 -3.875 0.6875q-3.40625 0 -5.25 -1.671875q-1.828125 -1.671875 -1.828125 -4.265625q0 -1.53125 0.6875 -2.78125q0.6875 -1.265625 1.8125 -2.015625q1.125 -0.765625 2.53125 -1.15625q1.03125 -0.28125 3.125 -0.53125q4.265625 -0.515625 6.265625 -1.21875q0.03125 -0.71875 0.03125 -0.90625q0 -2.15625 -1.0 -3.03125q-1.34375 -1.1875 -4.0 -1.1875q-2.484375 0 -3.671875 0.875q-1.171875 0.859375 -1.75 3.0625l-3.4375 -0.46875q0.46875 -2.203125 1.546875 -3.5625q1.078125 -1.359375 3.109375 -2.09375q2.03125 -0.734375 4.703125 -0.734375q2.65625 0 4.3125 0.625q1.671875 0.625 2.453125 1.578125q0.78125 0.953125 1.09375 2.390625q0.171875 0.90625 0.171875 3.25l0 4.6875q0 4.890625 0.21875 6.203125q0.234375 1.296875 0.890625 2.484375l-3.671875 0q-0.546875 -1.09375 -0.703125 -2.5625zm-0.296875 -7.84375q-1.90625 0.78125 -5.734375 1.328125q-2.171875 0.3125 -3.078125 0.703125q-0.890625 0.390625 -1.375 1.140625q-0.484375 0.75 -0.484375 1.671875q0 1.40625 1.0625 2.34375q1.0625 0.9375 3.109375 0.9375q2.03125 0 3.609375 -0.890625q1.59375 -0.890625 2.328125 -2.4375q0.5625 -1.1875 0.5625 -3.515625l0 -1.28125zm22.542969 2.8125l3.453125 0.4375q-0.5625 3.578125 -2.90625 5.609375q-2.328125 2.015625 -5.71875 2.015625q-4.265625 0 -6.859375 -2.78125q-2.578125 -2.78125 -2.578125 -7.984375q0 -3.359375 1.109375 -5.875q1.125 -2.515625 3.390625 -3.78125q2.28125 -1.265625 4.953125 -1.265625q3.375 0 5.515625 1.71875q2.15625 1.703125 2.765625 4.84375l-3.421875 0.53125q-0.484375 -2.09375 -1.734375 -3.140625q-1.234375 -1.0625 -2.984375 -1.0625q-2.65625 0 -4.328125 1.90625q-1.65625 1.90625 -1.65625 6.03125q0 4.171875 1.59375 6.078125q1.609375 1.890625 4.1875 1.890625q2.078125 0 3.453125 -1.265625q1.390625 -1.28125 1.765625 -3.90625zm20.671875 0.90625l3.625 0.453125q-0.859375 3.1875 -3.1875 4.953125q-2.3125 1.75 -5.9375 1.75q-4.546875 0 -7.21875 -2.796875q-2.65625 -2.8125 -2.65625 -7.875q0 -5.234375 2.6875 -8.125q2.703125 -2.890625 7.0 -2.890625q4.15625 0 6.796875 2.84375q2.640625 2.828125 2.640625 7.96875q0 0.3125 -0.03125 0.9375l-15.46875 0q0.203125 3.40625 1.9375 5.234375q1.734375 1.8125 4.34375 1.8125q1.921875 0 3.28125 -1.015625q1.375 -1.015625 2.1875 -3.25zm-11.546875 -5.671875l11.578125 0q-0.234375 -2.625 -1.328125 -3.9375q-1.671875 -2.03125 -4.359375 -2.03125q-2.421875 0 -4.078125 1.625q-1.640625 1.625 -1.8125 4.34375z" fill-rule="nonzero"/>
        <path fill="#eeeeee" d="m719.0656 1056.2166l6.929138 0l0 35.77954l-6.929138 0z" fill-rule="evenodd"/>
        <path stroke="#595959" stroke-width="8.0" stroke-linejoin="round" stroke-linecap="butt" d="m719.0656 1056.2166l6.929138 0l0 35.77954l-6.929138 0z" fill-rule="evenodd"/>
        <path fill="#eeeeee" d="m677.7113 1091.9961l89.63776 0l0 6.8031006l-89.63776 0z" fill-rule="evenodd"/>
        <path stroke="#595959" stroke-width="8.0" stroke-linejoin="round" stroke-linecap="butt" d="m677.7113 1091.9961l89.63776 0l0 6.8031006l-89.63776 0z" fill-rule="evenodd"/>
        <path fill="#000000" fill-opacity="0.0" d="m344.96063 823.7441c188.78741 0 377.57483 57.118103 377.57483 114.236206" fill-rule="evenodd"/>
        <path stroke="#ffab40" stroke-width="8.0" stroke-linejoin="round" stroke-linecap="butt" stroke-dasharray="64.0,24.0" d="m344.96063 823.7441c188.78741 0 377.57483 57.118103 377.57483 114.236206" fill-rule="evenodd"/>
        <path fill="#000000" fill-opacity="0.0" d="m816.29395 997.09845c67.16016 0 100.74164 5.322815 134.32037 10.64563c33.578735 5.322876 67.154785 10.645691 134.30951 10.645691" fill-rule="evenodd"/>
        <path stroke="#ffab40" stroke-width="8.0" stroke-linejoin="round" stroke-linecap="butt" stroke-dasharray="64.0,24.0" d="m816.29395 997.09845c67.16016 0 100.74164 5.322815 134.32037 10.64563c33.578735 5.322876 67.154785 10.645691 134.30951 10.645691" fill-rule="evenodd"/>
        <path fill="#000000" fill-opacity="0.0" d="m1197.4698 1070.185c0 75.048706 0.01574707 112.57385 0.03149414 150.09741c0.01574707 37.52368 0.03149414 75.04578 0.03149414 150.09155" fill-rule="evenodd"/>
        <path stroke="#ffab40" stroke-width="8.0" stroke-linejoin="round" stroke-linecap="butt" stroke-dasharray="64.0,24.0" d="m1197.4698 1070.185c0 75.048706 0.01574707 112.57385 0.03149414 150.09741c0.01574707 37.52368 0.03149414 75.04578 0.03149414 150.09155" fill-rule="evenodd"/>
        <path fill="#000000" fill-opacity="0.0" d="m1197.4698 1070.185c0 75.048706 -59.370117 112.57385 -118.740234 150.09741c-59.370056 37.52368 -118.74011 75.04578 -118.74011 150.09155" fill-rule="evenodd"/>
        <path stroke="#ffab40" stroke-width="8.0" stroke-linejoin="round" stroke-linecap="butt" stroke-dasharray="64.0,24.0" d="m1197.4698 1070.185c0 75.048706 -59.370117 112.57385 -118.740234 150.09741c-59.370056 37.52368 -118.74011 75.04578 -118.74011 150.09155" fill-rule="evenodd"/>
        <path fill="#000000" fill-opacity="0.0" d="m1197.4698 1070.185c0 75.048706 -118.7323 112.57385 -237.4646 150.09741c-118.7323 37.52368 -237.46454 75.04578 -237.46454 150.09155" fill-rule="evenodd"/>
        <path stroke="#ffab40" stroke-width="8.0" stroke-linejoin="round" stroke-linecap="butt" stroke-dasharray="64.0,24.0" d="m1197.4698 1070.185c0 75.048706 -118.7323 112.57385 -237.4646 150.09741c-118.7323 37.52368 -237.46454 75.04578 -237.46454 150.09155" fill-rule="evenodd"/>
        <path fill="#000000" fill-opacity="0.0" d="m1378.853 1150.5958c61.123535 0 91.68408 44.69287 122.24707 89.38574c30.562988 44.692993 61.128418 89.385864 122.256836 89.385864" fill-rule="evenodd"/>
        <path stroke="#0097a7" stroke-width="8.0" stroke-linejoin="round" stroke-linecap="butt" d="m1378.853 1150.5958c61.123535 0 91.68408 44.69287 122.24707 89.38574c30.562988 44.692993 61.128418 89.385864 122.256836 89.385864" fill-rule="evenodd"/>
        <path fill="#000000" fill-opacity="0.0" d="m1378.853 1150.5958c61.123535 0 91.68408 -5.322876 122.24707 -10.645752c30.562988 -5.322754 61.128418 -10.64563 122.256836 -10.64563" fill-rule="evenodd"/>
        <path stroke="#0097a7" stroke-width="8.0" stroke-linejoin="round" stroke-linecap="butt" d="m1378.853 1150.5958c61.123535 0 91.68408 -5.322876 122.24707 -10.645752c30.562988 -5.322754 61.128418 -10.64563 122.256836 -10.64563" fill-rule="evenodd"/>
        <path fill="#000000" fill-opacity="0.0" d="m310.74152 1350.6665c57.846924 0 86.76865 -50.015747 115.69385 -100.031494c28.925201 -50.015747 57.85388 -100.031494 115.70776 -100.031494" fill-rule="evenodd"/>
        <path stroke="#4285f4" stroke-width="8.0" stroke-linejoin="round" stroke-linecap="butt" d="m310.74152 1350.6665c57.846924 0 86.76865 -50.015747 115.69385 -100.031494c28.925201 -50.015747 57.85388 -100.031494 115.70776 -100.031494" fill-rule="evenodd"/>
        <path fill="#000000" fill-opacity="0.0" d="m310.77692 1150.5945c57.838104 0 86.75888 0.01574707 115.67621 0.03149414c28.917328 0.01574707 57.831177 0.03149414 115.66235 0.03149414" fill-rule="evenodd"/>
        <path stroke="#4285f4" stroke-width="8.0" stroke-linejoin="round" stroke-linecap="butt" d="m310.77692 1150.5945c57.838104 0 86.75888 0.01574707 115.67621 0.03149414c28.917328 0.01574707 57.831177 0.03149414 115.66235 0.03149414" fill-rule="evenodd"/>
        <path fill="#4285f4" d="m538.4383 1150.6246l0 0c0 -2.2091064 1.720398 -4.0 3.8425293 -4.0l0 0c1.019104 0 1.99646 0.4215088 2.717102 1.1716309c0.72058105 0.7501221 1.1254272 1.7675781 1.1254272 2.8283691l0 0c0 2.2092285 -1.7203369 4.0 -3.8425293 4.0l0 0c-2.1221313 0 -3.8425293 -1.7907715 -3.8425293 -4.0z" fill-rule="evenodd"/>
        <path stroke="#4285f4" stroke-width="8.0" stroke-linejoin="round" stroke-linecap="butt" d="m538.4383 1150.6246l0 0c0 -2.2091064 1.720398 -4.0 3.8425293 -4.0l0 0c1.019104 0 1.99646 0.4215088 2.717102 1.1716309c0.72058105 0.7501221 1.1254272 1.7675781 1.1254272 2.8283691l0 0c0 2.2092285 -1.7203369 4.0 -3.8425293 4.0l0 0c-2.1221313 0 -3.8425293 -1.7907715 -3.8425293 -4.0z" fill-rule="evenodd"/>
        <path fill="#0097a7" d="m1376.0499 1150.5958l0 0c0 -2.2091064 1.7203369 -4.0 3.8424072 -4.0l0 0c1.019165 0 1.99646 0.42138672 2.717163 1.1715088c0.72058105 0.75024414 1.1253662 1.7675781 1.1253662 2.8284912l0 0c0 2.2091064 -1.7203369 4.0 -3.8425293 4.0l0 0c-2.1220703 0 -3.8424072 -1.7908936 -3.8424072 -4.0z" fill-rule="evenodd"/>
        <path stroke="#0097a7" stroke-width="8.0" stroke-linejoin="round" stroke-linecap="butt" d="m1376.0499 1150.5958l0 0c0 -2.2091064 1.7203369 -4.0 3.8424072 -4.0l0 0c1.019165 0 1.99646 0.42138672 2.717163 1.1715088c0.72058105 0.75024414 1.1253662 1.7675781 1.1253662 2.8284912l0 0c0 2.2091064 -1.7203369 4.0 -3.8425293 4.0l0 0c-2.1220703 0 -3.8424072 -1.7908936 -3.8424072 -4.0z" fill-rule="evenodd"/>
        <path fill="#000000" fill-opacity="0.0" d="m1197.4698 1370.3793c0 -109.88977 89.29126 -219.77954 178.58264 -219.77954" fill-rule="evenodd"/>
        <path stroke="#0097a7" stroke-width="8.0" stroke-linejoin="round" stroke-linecap="butt" d="m1197.4698 1370.3793c0 -109.88977 89.29126 -219.77954 178.58264 -219.77954" fill-rule="evenodd"/>
        <path fill="#000000" fill-opacity="0.0" d="m546.12335 1150.6246c88.20471 0 176.40948 109.87402 176.40948 219.74805" fill-rule="evenodd"/>
        <path stroke="#4285f4" stroke-width="8.0" stroke-linejoin="round" stroke-linecap="butt" d="m546.12335 1150.6246c88.20471 0 176.40948 109.87402 176.40948 219.74805" fill-rule="evenodd"/>
        <path fill="#000000" fill-opacity="0.0" d="m546.12335 1150.6246c206.94489 0 413.88977 109.87402 413.88977 219.74805" fill-rule="evenodd"/>
        <path stroke="#4285f4" stroke-width="8.0" stroke-linejoin="round" stroke-linecap="butt" d="m546.12335 1150.6246c206.94489 0 413.88977 109.87402 413.88977 219.74805" fill-rule="evenodd"/>
        <path fill="#000000" fill-opacity="0.0" d="m546.12335 1150.6246c325.6693 0 651.33856 109.87402 651.33856 219.74805" fill-rule="evenodd"/>
        <path stroke="#4285f4" stroke-width="8.0" stroke-linejoin="round" stroke-linecap="butt" d="m546.12335 1150.6246c325.6693 0 651.33856 109.87402 651.33856 219.74805" fill-rule="evenodd"/>
        <path fill="#000000" fill-opacity="0.0" d="m960.0 1370.3793c0 -109.88977 208.0315 -219.77954 416.063 -219.77954" fill-rule="evenodd"/>
        <path stroke="#0097a7" stroke-width="8.0" stroke-linejoin="round" stroke-linecap="butt" d="m960.0 1370.3793c0 -109.88977 208.0315 -219.77954 416.063 -219.77954" fill-rule="evenodd"/>
        <path fill="#000000" fill-opacity="0.0" d="m722.5302 1370.3793c0 -109.88977 326.75592 -219.77954 653.5118 -219.77954" fill-rule="evenodd"/>
        <path stroke="#0097a7" stroke-width="8.0" stroke-linejoin="round" stroke-linecap="butt" d="m722.5302 1370.3793c0 -109.88977 326.75592 -219.77954 653.5118 -219.77954" fill-rule="evenodd"/>
        <path fill="#000000" fill-opacity="0.0" d="m1478.6666 763.7454l335.27563 0l0 291.24408l-335.27563 0z" fill-rule="evenodd"/>
        <path fill="#ffab40" d="m1526.8698 799.786q0 5.359375 -2.578125 9.78125q-2.578125 4.421875 -6.984375 6.921875q-4.40625 2.5 -9.640625 2.5q-5.359375 0 -9.78125 -2.578125q-4.421875 -2.578125 -6.921875 -6.984375q-2.5 -4.40625 -2.5 -9.640625q0 -5.359375 2.578125 -9.796875q2.578125 -4.4375 6.984375 -6.9375q4.40625 -2.5 9.640625 -2.5q8.15625 0 13.671875 5.625q5.53125 5.609375 5.53125 13.609375z" fill-rule="nonzero"/>
        <path fill="#595959" d="m1562.2955 801.0985l3.796875 0.96875q-1.203125 4.65625 -4.296875 7.109375q-3.09375 2.453125 -7.5625 2.453125q-4.625 0 -7.53125 -1.875q-2.90625 -1.890625 -4.421875 -5.46875q-1.5 -3.578125 -1.5 -7.671875q0 -4.46875 1.703125 -7.796875q1.703125 -3.34375 4.859375 -5.0625q3.15625 -1.734375 6.953125 -1.734375q4.296875 0 7.21875 2.1875q2.9375 2.1875 4.078125 6.15625l-3.71875 0.875q-1.0 -3.125 -2.90625 -4.546875q-1.890625 -1.421875 -4.75 -1.421875q-3.3125 0 -5.53125 1.578125q-2.203125 1.578125 -3.109375 4.25q-0.890625 2.65625 -0.890625 5.5q0 3.640625 1.0625 6.375q1.0625 2.71875 3.296875 4.078125q2.25 1.34375 4.875 1.34375q3.1875 0 5.390625 -1.828125q2.203125 -1.84375 2.984375 -5.46875zm6.6992188 -0.328125q0 -5.765625 3.203125 -8.53125q2.671875 -2.3125 6.53125 -2.3125q4.265625 0 6.984375 2.8125q2.71875 2.796875 2.71875 7.734375q0 4.015625 -1.203125 6.3125q-1.203125 2.28125 -3.5 3.5625q-2.296875 1.265625 -5.0 1.265625q-4.359375 0 -7.046875 -2.796875q-2.6875 -2.796875 -2.6875 -8.046875zm3.609375 0q0 3.984375 1.734375 5.96875q1.75 1.984375 4.390625 1.984375q2.609375 0 4.34375 -1.984375q1.75 -2.0 1.75 -6.078125q0 -3.859375 -1.75 -5.828125q-1.75 -1.984375 -4.34375 -1.984375q-2.640625 0 -4.390625 1.96875q-1.734375 1.96875 -1.734375 5.953125zm19.949219 10.375l0 -20.75l3.15625 0l0 2.953125q2.296875 -3.421875 6.609375 -3.421875q1.875 0 3.4375 0.6875q1.578125 0.671875 2.359375 1.765625q0.78125 1.09375 1.09375 2.59375q0.203125 0.96875 0.203125 3.421875l0 12.75l-3.515625 0l0 -12.625q0 -2.140625 -0.421875 -3.203125q-0.40625 -1.0625 -1.453125 -1.703125q-1.046875 -0.640625 -2.453125 -0.640625q-2.234375 0 -3.875 1.4375q-1.625 1.421875 -1.625 5.40625l0 11.328125l-3.515625 0zm23.089844 0l0 -18.015625l-3.109375 0l0 -2.734375l3.109375 0l0 -2.203125q0 -2.09375 0.359375 -3.109375q0.515625 -1.359375 1.796875 -2.203125q1.28125 -0.859375 3.578125 -0.859375q1.484375 0 3.28125 0.359375l-0.53125 3.0625q-1.09375 -0.203125 -2.0625 -0.203125q-1.609375 0 -2.28125 0.6875q-0.65625 0.6875 -0.65625 2.5625l0 1.90625l4.046875 0l0 2.734375l-4.046875 0l0 18.015625l-3.484375 0zm10.285156 -24.59375l0 -4.046875l3.515625 0l0 4.046875l-3.515625 0zm0 24.59375l0 -20.75l3.515625 0l0 20.75l-3.515625 0zm8.230469 1.71875l3.40625 0.515625q0.21875 1.578125 1.203125 2.296875q1.296875 0.984375 3.5625 0.984375q2.453125 0 3.78125 -0.984375q1.328125 -0.96875 1.796875 -2.734375q0.265625 -1.078125 0.25 -4.515625q-2.3125 2.71875 -5.75 2.71875q-4.265625 0 -6.609375 -3.078125q-2.34375 -3.09375 -2.34375 -7.40625q0 -2.96875 1.0625 -5.484375q1.078125 -2.515625 3.109375 -3.875q2.046875 -1.375 4.8125 -1.375q3.671875 0 6.046875 2.96875l0 -2.5l3.25 0l0 17.9375q0 4.84375 -1.0 6.859375q-0.984375 2.03125 -3.125 3.203125q-2.125 1.171875 -5.25 1.171875q-3.71875 0 -6.0 -1.671875q-2.28125 -1.671875 -2.203125 -5.03125zm2.90625 -12.46875q0 4.09375 1.609375 5.96875q1.625 1.875 4.078125 1.875q2.421875 0 4.0625 -1.859375q1.640625 -1.875 1.640625 -5.859375q0 -3.8125 -1.703125 -5.734375q-1.6875 -1.9375 -4.0625 -1.9375q-2.34375 0 -3.984375 1.90625q-1.640625 1.890625 -1.640625 5.640625zm37.8125 19.171875q-2.90625 -3.671875 -4.921875 -8.59375q-2.015625 -4.921875 -2.015625 -10.203125q0 -4.640625 1.5 -8.90625q1.765625 -4.9375 5.4375 -9.84375l2.515625 0q-2.359375 4.0625 -3.125 5.796875q-1.1875 2.703125 -1.875 5.625q-0.84375 3.65625 -0.84375 7.34375q0 9.40625 5.84375 18.78125l-2.515625 0zm6.5859375 -32.96875l0 -4.09375l3.515625 0l0 4.09375l-3.515625 0zm-4.46875 32.59375l0.671875 -2.984375q1.046875 0.265625 1.65625 0.265625q1.078125 0 1.609375 -0.71875q0.53125 -0.703125 0.53125 -3.546875l0 -21.8125l3.515625 0l0 21.890625q0 3.828125 -1.0 5.328125q-1.265625 1.953125 -4.21875 1.953125q-1.4375 0 -2.765625 -0.375zm11.964844 -14.234375l3.46875 -0.546875q0.296875 2.078125 1.625 3.203125q1.34375 1.109375 3.75 1.109375q2.421875 0 3.59375 -0.984375q1.171875 -0.984375 1.171875 -2.3125q0 -1.203125 -1.03125 -1.875q-0.71875 -0.46875 -3.59375 -1.203125q-3.875 -0.96875 -5.375 -1.671875q-1.484375 -0.71875 -2.265625 -1.984375q-0.765625 -1.265625 -0.765625 -2.78125q0 -1.390625 0.640625 -2.5625q0.640625 -1.1875 1.734375 -1.96875q0.8125 -0.609375 2.21875 -1.03125q1.421875 -0.421875 3.046875 -0.421875q2.4375 0 4.28125 0.703125q1.859375 0.703125 2.734375 1.90625q0.875 1.203125 1.203125 3.21875l-3.4375 0.46875q-0.234375 -1.609375 -1.359375 -2.5q-1.109375 -0.90625 -3.171875 -0.90625q-2.421875 0 -3.453125 0.8125q-1.03125 0.796875 -1.03125 1.875q0 0.671875 0.421875 1.21875q0.4375 0.578125 1.359375 0.9375q0.515625 0.203125 3.09375 0.90625q3.734375 1.0 5.203125 1.640625q1.484375 0.625 2.3125 1.84375q0.84375 1.203125 0.84375 3.0q0 1.75 -1.03125 3.3125q-1.015625 1.546875 -2.953125 2.40625q-1.921875 0.84375 -4.375 0.84375q-4.03125 0 -6.15625 -1.671875q-2.125 -1.6875 -2.703125 -4.984375zm20.09375 -4.1875q0 -5.765625 3.203125 -8.53125q2.671875 -2.3125 6.53125 -2.3125q4.265625 0 6.984375 2.8125q2.71875 2.796875 2.71875 7.734375q0 4.015625 -1.203125 6.3125q-1.203125 2.28125 -3.5 3.5625q-2.296875 1.265625 -5.0 1.265625q-4.359375 0 -7.046875 -2.796875q-2.6875 -2.796875 -2.6875 -8.046875zm3.609375 0q0 3.984375 1.734375 5.96875q1.75 1.984375 4.390625 1.984375q2.609375 0 4.34375 -1.984375q1.75 -2.0 1.75 -6.078125q0 -3.859375 -1.75 -5.828125q-1.75 -1.984375 -4.34375 -1.984375q-2.640625 0 -4.390625 1.96875q-1.734375 1.96875 -1.734375 5.953125zm19.949219 10.375l0 -20.75l3.15625 0l0 2.953125q2.296875 -3.421875 6.609375 -3.421875q1.875 0 3.4375 0.6875q1.578125 0.671875 2.359375 1.765625q0.78125 1.09375 1.09375 2.59375q0.203125 0.96875 0.203125 3.421875l0 12.75l-3.515625 0l0 -12.625q0 -2.140625 -0.421875 -3.203125q-0.40625 -1.0625 -1.453125 -1.703125q-1.046875 -0.640625 -2.453125 -0.640625q-2.234375 0 -3.875 1.4375q-1.625 1.421875 -1.625 5.40625l0 11.328125l-3.515625 0zm24.542969 8.421875l-2.515625 0q5.84375 -9.375 5.84375 -18.78125q0 -3.671875 -0.84375 -7.28125q-0.65625 -2.921875 -1.859375 -5.625q-0.75 -1.75 -3.140625 -5.859375l2.515625 0q3.671875 4.90625 5.4375 9.84375q1.5 4.265625 1.5 8.90625q0 5.28125 -2.03125 10.203125q-2.015625 4.921875 -4.90625 8.59375z" fill-rule="nonzero"/>
        <path fill="#4285f4" d="m1526.8698 854.986q0 5.359375 -2.578125 9.78125q-2.578125 4.421875 -6.984375 6.921875q-4.40625 2.5 -9.640625 2.5q-5.359375 0 -9.78125 -2.578125q-4.421875 -2.578125 -6.921875 -6.984375q-2.5 -4.40625 -2.5 -9.640625q0 -5.359375 2.578125 -9.796875q2.578125 -4.4375 6.984375 -6.9375q4.40625 -2.5 9.640625 -2.5q8.15625 0 13.671875 5.625q5.53125 5.609375 5.53125 13.609375z" fill-rule="nonzero"/>
        <path fill="#595959" d="m1540.5768 857.1423l3.578125 -0.3125q0.25 2.15625 1.171875 3.53125q0.9375 1.375 2.890625 2.234375q1.953125 0.84375 4.390625 0.84375q2.171875 0 3.828125 -0.640625q1.65625 -0.65625 2.46875 -1.78125q0.8125 -1.125 0.8125 -2.453125q0 -1.34375 -0.78125 -2.34375q-0.78125 -1.015625 -2.578125 -1.6875q-1.15625 -0.453125 -5.109375 -1.390625q-3.9375 -0.953125 -5.515625 -1.796875q-2.046875 -1.078125 -3.0625 -2.671875q-1.0 -1.59375 -1.0 -3.5625q0 -2.171875 1.234375 -4.046875q1.234375 -1.890625 3.59375 -2.859375q2.359375 -0.984375 5.25 -0.984375q3.1875 0 5.609375 1.03125q2.4375 1.015625 3.75 3.015625q1.3125 1.984375 1.40625 4.515625l-3.640625 0.265625q-0.28125 -2.71875 -1.984375 -4.09375q-1.6875 -1.390625 -4.984375 -1.390625q-3.4375 0 -5.015625 1.265625q-1.5625 1.25 -1.5625 3.03125q0 1.546875 1.109375 2.53125q1.09375 1.0 5.703125 2.046875q4.625 1.046875 6.34375 1.828125q2.5 1.15625 3.6875 2.921875q1.203125 1.765625 1.203125 4.0625q0 2.296875 -1.3125 4.3125q-1.3125 2.015625 -3.765625 3.140625q-2.4375 1.125 -5.515625 1.125q-3.875 0 -6.515625 -1.125q-2.625 -1.140625 -4.125 -3.40625q-1.484375 -2.28125 -1.5625 -5.15625zm35.195312 6.0625l0.515625 3.09375q-1.484375 0.328125 -2.65625 0.328125q-1.921875 0 -2.984375 -0.609375q-1.046875 -0.609375 -1.484375 -1.59375q-0.421875 -0.984375 -0.421875 -4.15625l0 -11.9375l-2.578125 0l0 -2.734375l2.578125 0l0 -5.125l3.5 -2.109375l0 7.234375l3.53125 0l0 2.734375l-3.53125 0l0 12.140625q0 1.5 0.1875 1.9375q0.1875 0.421875 0.59375 0.671875q0.421875 0.25 1.203125 0.25q0.59375 0 1.546875 -0.125zm3.3945312 3.140625l0 -20.75l3.171875 0l0 3.15625q1.203125 -2.21875 2.234375 -2.921875q1.03125 -0.703125 2.25 -0.703125q1.78125 0 3.625 1.140625l-1.21875 3.265625q-1.28125 -0.765625 -2.578125 -0.765625q-1.15625 0 -2.078125 0.703125q-0.90625 0.6875 -1.296875 1.90625q-0.59375 1.875 -0.59375 4.109375l0 10.859375l-3.515625 0zm27.570312 -6.6875l3.625 0.453125q-0.859375 3.1875 -3.1875 4.953125q-2.3125 1.75 -5.9375 1.75q-4.546875 0 -7.21875 -2.796875q-2.65625 -2.8125 -2.65625 -7.875q0 -5.234375 2.6875 -8.125q2.703125 -2.890625 7.0 -2.890625q4.15625 0 6.796875 2.84375q2.640625 2.828125 2.640625 7.96875q0 0.3125 -0.03125 0.9375l-15.46875 0q0.203125 3.40625 1.9375 5.234375q1.734375 1.8125 4.34375 1.8125q1.921875 0 3.28125 -1.015625q1.375 -1.015625 2.1875 -3.25zm-11.546875 -5.671875l11.578125 0q-0.234375 -2.625 -1.328125 -3.9375q-1.671875 -2.03125 -4.359375 -2.03125q-2.421875 0 -4.078125 1.625q-1.640625 1.625 -1.8125 4.34375zm33.121094 9.796875q-1.953125 1.65625 -3.765625 2.34375q-1.796875 0.6875 -3.875 0.6875q-3.40625 0 -5.25 -1.671875q-1.828125 -1.671875 -1.828125 -4.265625q0 -1.53125 0.6875 -2.78125q0.6875 -1.265625 1.8125 -2.015625q1.125 -0.765625 2.53125 -1.15625q1.03125 -0.28125 3.125 -0.53125q4.265625 -0.515625 6.265625 -1.21875q0.03125 -0.71875 0.03125 -0.90625q0 -2.15625 -1.0 -3.03125q-1.34375 -1.1875 -4.0 -1.1875q-2.484375 0 -3.671875 0.875q-1.171875 0.859375 -1.75 3.0625l-3.4375 -0.46875q0.46875 -2.203125 1.546875 -3.5625q1.078125 -1.359375 3.109375 -2.09375q2.03125 -0.734375 4.703125 -0.734375q2.65625 0 4.3125 0.625q1.671875 0.625 2.453125 1.578125q0.78125 0.953125 1.09375 2.390625q0.171875 0.90625 0.171875 3.25l0 4.6875q0 4.890625 0.21875 6.203125q0.234375 1.296875 0.890625 2.484375l-3.671875 0q-0.546875 -1.09375 -0.703125 -2.5625zm-0.296875 -7.84375q-1.90625 0.78125 -5.734375 1.328125q-2.171875 0.3125 -3.078125 0.703125q-0.890625 0.390625 -1.375 1.140625q-0.484375 0.75 -0.484375 1.671875q0 1.40625 1.0625 2.34375q1.0625 0.9375 3.109375 0.9375q2.03125 0 3.609375 -0.890625q1.59375 -0.890625 2.328125 -2.4375q0.5625 -1.1875 0.5625 -3.515625l0 -1.28125zm9.011719 10.40625l0 -20.75l3.140625 0l0 2.921875q0.984375 -1.53125 2.59375 -2.453125q1.625 -0.9375 3.703125 -0.9375q2.296875 0 3.765625 0.96875q1.484375 0.953125 2.09375 2.671875q2.453125 -3.640625 6.40625 -3.640625q3.078125 0 4.734375 1.71875q1.671875 1.703125 1.671875 5.265625l0 14.234375l-3.5 0l0 -13.0625q0 -2.109375 -0.34375 -3.03125q-0.34375 -0.9375 -1.25 -1.5q-0.890625 -0.578125 -2.09375 -0.578125q-2.1875 0 -3.640625 1.46875q-1.4375 1.453125 -1.4375 4.65625l0 12.046875l-3.515625 0l0 -13.484375q0 -2.34375 -0.859375 -3.515625q-0.859375 -1.171875 -2.8125 -1.171875q-1.484375 0 -2.75 0.78125q-1.265625 0.78125 -1.828125 2.296875q-0.5625 1.5 -0.5625 4.328125l0 10.765625l-3.515625 0zm44.44922 -24.59375l0 -4.046875l3.515625 0l0 4.046875l-3.515625 0zm0 24.59375l0 -20.75l3.515625 0l0 20.75l-3.515625 0zm8.871094 0l0 -20.75l3.15625 0l0 2.953125q2.296875 -3.421875 6.609375 -3.421875q1.875 0 3.4375 0.6875q1.578125 0.671875 2.359375 1.765625q0.78125 1.09375 1.09375 2.59375q0.203125 0.96875 0.203125 3.421875l0 12.75l-3.515625 0l0 -12.625q0 -2.140625 -0.421875 -3.203125q-0.40625 -1.0625 -1.453125 -1.703125q-1.046875 -0.640625 -2.453125 -0.640625q-2.234375 0 -3.875 1.4375q-1.625 1.421875 -1.625 5.40625l0 11.328125l-3.515625 0zm22.246094 7.953125l0 -28.703125l3.203125 0l0 2.703125q1.125 -1.578125 2.546875 -2.375q1.4375 -0.796875 3.46875 -0.796875q2.65625 0 4.6875 1.375q2.03125 1.359375 3.0625 3.859375q1.03125 2.484375 1.03125 5.453125q0 3.1875 -1.140625 5.734375q-1.140625 2.546875 -3.328125 3.90625q-2.171875 1.359375 -4.5625 1.359375q-1.765625 0 -3.171875 -0.734375q-1.390625 -0.75 -2.28125 -1.890625l0 10.109375l-3.515625 0zm3.1875 -18.203125q0 4.0 1.609375 5.921875q1.625 1.90625 3.9375 1.90625q2.34375 0 4.0 -1.984375q1.671875 -1.984375 1.671875 -6.140625q0 -3.96875 -1.625 -5.9375q-1.625 -1.96875 -3.890625 -1.96875q-2.25 0 -3.984375 2.09375q-1.71875 2.09375 -1.71875 6.109375zm32.652344 10.25l0 -3.046875q-2.421875 3.515625 -6.578125 3.515625q-1.84375 0 -3.4375 -0.703125q-1.59375 -0.703125 -2.359375 -1.765625q-0.765625 -1.0625 -1.078125 -2.609375q-0.21875 -1.03125 -0.21875 -3.28125l0 -12.859375l3.515625 0l0 11.515625q0 2.75 0.21875 3.703125q0.328125 1.390625 1.390625 2.1875q1.078125 0.78125 2.671875 0.78125q1.578125 0 2.953125 -0.8125q1.390625 -0.8125 1.96875 -2.203125q0.578125 -1.390625 0.578125 -4.046875l0 -11.125l3.515625 0l0 20.75l-3.140625 0zm16.324219 -3.140625l0.515625 3.09375q-1.484375 0.328125 -2.65625 0.328125q-1.921875 0 -2.984375 -0.609375q-1.046875 -0.609375 -1.484375 -1.59375q-0.421875 -0.984375 -0.421875 -4.15625l0 -11.9375l-2.578125 0l0 -2.734375l2.578125 0l0 -5.125l3.5 -2.109375l0 7.234375l3.53125 0l0 2.734375l-3.53125 0l0 12.140625q0 1.5 0.1875 1.9375q0.1875 0.421875 0.59375 0.671875q0.421875 0.25 1.203125 0.25q0.59375 0 1.546875 -0.125z" fill-rule="nonzero"/>
        <path fill="#0097a7" d="m1526.8698 910.18604q0 5.359375 -2.578125 9.78125q-2.578125 4.421875 -6.984375 6.921875q-4.40625 2.5 -9.640625 2.5q-5.359375 0 -9.78125 -2.578125q-4.421875 -2.578125 -6.921875 -6.984375q-2.5 -4.40625 -2.5 -9.640625q0 -5.359375 2.578125 -9.796875q2.578125 -4.4375 6.984375 -6.9375q4.40625 -2.5 9.640625 -2.5q8.15625 0 13.671875 5.625q5.53125 5.609375 5.53125 13.609375z" fill-rule="nonzero"/>
        <path fill="#595959" d="m1540.5768 912.3423l3.578125 -0.3125q0.25 2.15625 1.171875 3.53125q0.9375 1.375 2.890625 2.234375q1.953125 0.84375 4.390625 0.84375q2.171875 0 3.828125 -0.640625q1.65625 -0.65625 2.46875 -1.78125q0.8125 -1.125 0.8125 -2.453125q0 -1.34375 -0.78125 -2.34375q-0.78125 -1.015625 -2.578125 -1.6875q-1.15625 -0.453125 -5.109375 -1.390625q-3.9375 -0.953125 -5.515625 -1.796875q-2.046875 -1.078125 -3.0625 -2.671875q-1.0 -1.59375 -1.0 -3.5625q0 -2.171875 1.234375 -4.046875q1.234375 -1.890625 3.59375 -2.859375q2.359375 -0.984375 5.25 -0.984375q3.1875 0 5.609375 1.03125q2.4375 1.015625 3.75 3.015625q1.3125 1.984375 1.40625 4.515625l-3.640625 0.265625q-0.28125 -2.71875 -1.984375 -4.09375q-1.6875 -1.390625 -4.984375 -1.390625q-3.4375 0 -5.015625 1.265625q-1.5625 1.25 -1.5625 3.03125q0 1.546875 1.109375 2.53125q1.09375 1.0 5.703125 2.046875q4.625 1.046875 6.34375 1.828125q2.5 1.15625 3.6875 2.921875q1.203125 1.765625 1.203125 4.0625q0 2.296875 -1.3125 4.3125q-1.3125 2.015625 -3.765625 3.140625q-2.4375 1.125 -5.515625 1.125q-3.875 0 -6.515625 -1.125q-2.625 -1.140625 -4.125 -3.40625q-1.484375 -2.28125 -1.5625 -5.15625zm35.195312 6.0625l0.515625 3.09375q-1.484375 0.328125 -2.65625 0.328125q-1.921875 0 -2.984375 -0.609375q-1.046875 -0.609375 -1.484375 -1.59375q-0.421875 -0.984375 -0.421875 -4.15625l0 -11.9375l-2.578125 0l0 -2.734375l2.578125 0l0 -5.125l3.5 -2.109375l0 7.234375l3.53125 0l0 2.734375l-3.53125 0l0 12.140625q0 1.5 0.1875 1.9375q0.1875 0.421875 0.59375 0.671875q0.421875 0.25 1.203125 0.25q0.59375 0 1.546875 -0.125zm3.3945312 3.140625l0 -20.75l3.171875 0l0 3.15625q1.203125 -2.21875 2.234375 -2.921875q1.03125 -0.703125 2.25 -0.703125q1.78125 0 3.625 1.140625l-1.21875 3.265625q-1.28125 -0.765625 -2.578125 -0.765625q-1.15625 0 -2.078125 0.703125q-0.90625 0.6875 -1.296875 1.90625q-0.59375 1.875 -0.59375 4.109375l0 10.859375l-3.515625 0zm27.570312 -6.6875l3.625 0.453125q-0.859375 3.1875 -3.1875 4.953125q-2.3125 1.75 -5.9375 1.75q-4.546875 0 -7.21875 -2.796875q-2.65625 -2.8125 -2.65625 -7.875q0 -5.234375 2.6875 -8.125q2.703125 -2.890625 7.0 -2.890625q4.15625 0 6.796875 2.84375q2.640625 2.828125 2.640625 7.96875q0 0.3125 -0.03125 0.9375l-15.46875 0q0.203125 3.40625 1.9375 5.234375q1.734375 1.8125 4.34375 1.8125q1.921875 0 3.28125 -1.015625q1.375 -1.015625 2.1875 -3.25zm-11.546875 -5.671875l11.578125 0q-0.234375 -2.625 -1.328125 -3.9375q-1.671875 -2.03125 -4.359375 -2.03125q-2.421875 0 -4.078125 1.625q-1.640625 1.625 -1.8125 4.34375zm33.121094 9.796875q-1.953125 1.65625 -3.765625 2.34375q-1.796875 0.6875 -3.875 0.6875q-3.40625 0 -5.25 -1.671875q-1.828125 -1.671875 -1.828125 -4.265625q0 -1.53125 0.6875 -2.78125q0.6875 -1.265625 1.8125 -2.015625q1.125 -0.765625 2.53125 -1.15625q1.03125 -0.28125 3.125 -0.53125q4.265625 -0.515625 6.265625 -1.21875q0.03125 -0.71875 0.03125 -0.90625q0 -2.15625 -1.0 -3.03125q-1.34375 -1.1875 -4.0 -1.1875q-2.484375 0 -3.671875 0.875q-1.171875 0.859375 -1.75 3.0625l-3.4375 -0.46875q0.46875 -2.203125 1.546875 -3.5625q1.078125 -1.359375 3.109375 -2.09375q2.03125 -0.734375 4.703125 -0.734375q2.65625 0 4.3125 0.625q1.671875 0.625 2.453125 1.578125q0.78125 0.953125 1.09375 2.390625q0.171875 0.90625 0.171875 3.25l0 4.6875q0 4.890625 0.21875 6.203125q0.234375 1.296875 0.890625 2.484375l-3.671875 0q-0.546875 -1.09375 -0.703125 -2.5625zm-0.296875 -7.84375q-1.90625 0.78125 -5.734375 1.328125q-2.171875 0.3125 -3.078125 0.703125q-0.890625 0.390625 -1.375 1.140625q-0.484375 0.75 -0.484375 1.671875q0 1.40625 1.0625 2.34375q1.0625 0.9375 3.109375 0.9375q2.03125 0 3.609375 -0.890625q1.59375 -0.890625 2.328125 -2.4375q0.5625 -1.1875 0.5625 -3.515625l0 -1.28125zm9.011719 10.40625l0 -20.75l3.140625 0l0 2.921875q0.984375 -1.53125 2.59375 -2.453125q1.625 -0.9375 3.703125 -0.9375q2.296875 0 3.765625 0.96875q1.484375 0.953125 2.09375 2.671875q2.453125 -3.640625 6.40625 -3.640625q3.078125 0 4.734375 1.71875q1.671875 1.703125 1.671875 5.265625l0 14.234375l-3.5 0l0 -13.0625q0 -2.109375 -0.34375 -3.03125q-0.34375 -0.9375 -1.25 -1.5q-0.890625 -0.578125 -2.09375 -0.578125q-2.1875 0 -3.640625 1.46875q-1.4375 1.453125 -1.4375 4.65625l0 12.046875l-3.515625 0l0 -13.484375q0 -2.34375 -0.859375 -3.515625q-0.859375 -1.171875 -2.8125 -1.171875q-1.484375 0 -2.75 0.78125q-1.265625 0.78125 -1.828125 2.296875q-0.5625 1.5 -0.5625 4.328125l0 10.765625l-3.515625 0zm43.121094 -10.375q0 -5.765625 3.203125 -8.53125q2.671875 -2.3125 6.53125 -2.3125q4.265625 0 6.984375 2.8125q2.71875 2.796875 2.71875 7.734375q0 4.015625 -1.203125 6.3125q-1.203125 2.28125 -3.5 3.5625q-2.296875 1.265625 -5.0 1.265625q-4.359375 0 -7.046875 -2.796875q-2.6875 -2.796875 -2.6875 -8.046875zm3.609375 0q0 3.984375 1.734375 5.96875q1.75 1.984375 4.390625 1.984375q2.609375 0 4.34375 -1.984375q1.75 -2.0 1.75 -6.078125q0 -3.859375 -1.75 -5.828125q-1.75 -1.984375 -4.34375 -1.984375q-2.640625 0 -4.390625 1.96875q-1.734375 1.96875 -1.734375 5.953125zm33.54297 10.375l0 -3.046875q-2.421875 3.515625 -6.578125 3.515625q-1.84375 0 -3.4375 -0.703125q-1.59375 -0.703125 -2.359375 -1.765625q-0.765625 -1.0625 -1.078125 -2.609375q-0.21875 -1.03125 -0.21875 -3.28125l0 -12.859375l3.515625 0l0 11.515625q0 2.75 0.21875 3.703125q0.328125 1.390625 1.390625 2.1875q1.078125 0.78125 2.671875 0.78125q1.578125 0 2.953125 -0.8125q1.390625 -0.8125 1.96875 -2.203125q0.578125 -1.390625 0.578125 -4.046875l0 -11.125l3.515625 0l0 20.75l-3.140625 0zm16.324219 -3.140625l0.515625 3.09375q-1.484375 0.328125 -2.65625 0.328125q-1.921875 0 -2.984375 -0.609375q-1.046875 -0.609375 -1.484375 -1.59375q-0.421875 -0.984375 -0.421875 -4.15625l0 -11.9375l-2.578125 0l0 -2.734375l2.578125 0l0 -5.125l3.5 -2.109375l0 7.234375l3.53125 0l0 2.734375l-3.53125 0l0 12.140625q0 1.5 0.1875 1.9375q0.1875 0.421875 0.59375 0.671875q0.421875 0.25 1.203125 0.25q0.59375 0 1.546875 -0.125zm3.4414062 11.09375l0 -28.703125l3.203125 0l0 2.703125q1.125 -1.578125 2.546875 -2.375q1.4375 -0.796875 3.46875 -0.796875q2.65625 0 4.6875 1.375q2.03125 1.359375 3.0625 3.859375q1.03125 2.484375 1.03125 5.453125q0 3.1875 -1.140625 5.734375q-1.140625 2.546875 -3.328125 3.90625q-2.171875 1.359375 -4.5625 1.359375q-1.765625 0 -3.171875 -0.734375q-1.390625 -0.75 -2.28125 -1.890625l0 10.109375l-3.515625 0zm3.1875 -18.203125q0 4.0 1.609375 5.921875q1.625 1.90625 3.9375 1.90625q2.34375 0 4.0 -1.984375q1.671875 -1.984375 1.671875 -6.140625q0 -3.96875 -1.625 -5.9375q-1.625 -1.96875 -3.890625 -1.96875q-2.25 0 -3.984375 2.09375q-1.71875 2.09375 -1.71875 6.109375zm32.652344 10.25l0 -3.046875q-2.421875 3.515625 -6.578125 3.515625q-1.84375 0 -3.4375 -0.703125q-1.59375 -0.703125 -2.359375 -1.765625q-0.765625 -1.0625 -1.078125 -2.609375q-0.21875 -1.03125 -0.21875 -3.28125l0 -12.859375l3.515625 0l0 11.515625q0 2.75 0.21875 3.703125q0.328125 1.390625 1.390625 2.1875q1.078125 0.78125 2.671875 0.78125q1.578125 0 2.953125 -0.8125q1.390625 -0.8125 1.96875 -2.203125q0.578125 -1.390625 0.578125 -4.046875l0 -11.125l3.515625 0l0 20.75l-3.140625 0zm16.324219 -3.140625l0.515625 3.09375q-1.484375 0.328125 -2.65625 0.328125q-1.921875 0 -2.984375 -0.609375q-1.046875 -0.609375 -1.484375 -1.59375q-0.421875 -0.984375 -0.421875 -4.15625l0 -11.9375l-2.578125 0l0 -2.734375l2.578125 0l0 -5.125l3.5 -2.109375l0 7.234375l3.53125 0l0 2.734375l-3.53125 0l0 12.140625q0 1.5 0.1875 1.9375q0.1875 0.421875 0.59375 0.671875q0.421875 0.25 1.203125 0.25q0.59375 0 1.546875 -0.125z" fill-rule="nonzero"/>
        <path fill="#000000" fill-opacity="0.0" d="m181.5433 898.06824l178.58267 0l0 88.8819l-178.58267 0z" fill-rule="evenodd"/>
        <path fill="#595959" d="m240.3073 921.7151l5.6875 0l0 24.8125q0 6.484375 -1.46875 10.296875q-1.46875 3.796875 -5.296875 6.1875q-3.8125 2.390625 -10.03125 2.390625q-6.03125 0 -9.875 -2.078125q-3.828125 -2.078125 -5.46875 -6.015625q-1.640625 -3.953125 -1.640625 -10.78125l0 -24.8125l5.6875 0l0 24.78125q0 5.609375 1.03125 8.265625q1.046875 2.640625 3.578125 4.078125q2.53125 1.4375 6.203125 1.4375q6.265625 0 8.921875 -2.84375q2.671875 -2.84375 2.671875 -10.9375l0 -24.78125zm12.361328 33.671875l5.2187653 -0.828125q0.4375 3.140625 2.4375 4.8125q2.015625 1.65625 5.625 1.65625q3.625 0 5.375 -1.46875q1.765625 -1.484375 1.765625 -3.46875q0 -1.796875 -1.546875 -2.8125q-1.09375 -0.703125 -5.390625 -1.796875q-5.8125 -1.46875 -8.046875 -2.53125q-2.2343903 -1.0625 -3.4062653 -2.953125q-1.15625 -1.890625 -1.15625 -4.1875q0 -2.078125 0.953125 -3.84375q0.953125 -1.78125 2.5937653 -2.953125q1.234375 -0.90625 3.359375 -1.53125q2.125 -0.625 4.5625 -0.625q3.65625 0 6.421875 1.0625q2.765625 1.046875 4.078125 2.84375q1.328125 1.796875 1.828125 4.8125l-5.15625 0.703125q-0.359375 -2.390625 -2.046875 -3.734375q-1.671875 -1.359375 -4.75 -1.359375q-3.640625 0 -5.1875 1.203125q-1.546875 1.203125 -1.546875 2.8125q0 1.03125 0.640625 1.84375q0.640625 0.859375 2.015625 1.40625q0.796875 0.296875 4.65625 1.34375q5.609375 1.5 7.8125 2.453125q2.21875 0.953125 3.46875 2.765625q1.265625 1.8125 1.265625 4.515625q0 2.640625 -1.546875 4.96875q-1.53125 2.328125 -4.4375 3.609375q-2.890625 1.265625 -6.5625 1.265625q-6.0625 0 -9.25 -2.515625q-3.1718903 -2.53125 -4.0468903 -7.46875zm53.406265 -0.734375l5.453125 0.671875q-1.28125 4.765625 -4.78125 7.40625q-3.484375 2.640625 -8.90625 2.640625q-6.8125 0 -10.8125 -4.203125q-4.0 -4.203125 -4.0 -11.796875q0 -7.84375 4.03125 -12.171875q4.046875 -4.34375 10.5 -4.34375q6.234375 0 10.1875 4.25q3.953125 4.234375 3.953125 11.953125q0 0.46875 -0.03125 1.40625l-23.203125 0q0.296875 5.125 2.90625 7.84375q2.609375 2.71875 6.5 2.71875q2.90625 0 4.953125 -1.515625q2.046875 -1.53125 3.25 -4.859375zm-17.3125 -8.53125l17.375 0q-0.34375 -3.921875 -1.984375 -5.890625q-2.53125 -3.046875 -6.546875 -3.046875q-3.625 0 -6.109375 2.4375q-2.46875 2.421875 -2.734375 6.5zm29.322266 18.546875l0 -31.109375l4.75 0l0 4.71875q1.8125 -3.3125 3.34375 -4.359375q1.546875 -1.0625 3.390625 -1.0625q2.671875 0 5.421875 1.6875l-1.8125 4.90625q-1.9375 -1.15625 -3.859375 -1.15625q-1.734375 0 -3.109375 1.046875q-1.375 1.046875 -1.96875 2.890625q-0.875 2.8125 -0.875 6.140625l0 16.296875l-5.28125 0z" fill-rule="nonzero"/>
    </g>
</svg>